<svg width="71" height="60" viewBox="0 0 71 60" fill="none" xmlns="http://www.w3.org/2000/svg">
  <path d="M36.4704 24.0952C36.4704 22.8544 36.3235 21.909 36.0297 21.2617C35.736 20.6143 35.2563 20.2893 34.5933 20.2893C33.3307 20.2893 32.7 21.4775 32.7 23.8497C32.7 25.0905 32.855 26.0359 33.1649 26.6832C33.4749 27.3319 33.9613 27.6556 34.6256 27.6556C35.8545 27.6556 36.4704 26.4688 36.4704 24.0952ZM30.8149 21.3992C31.2218 20.6804 31.7689 20.1382 32.4548 19.7741C33.1407 19.4086 33.8858 19.2266 34.6903 19.2266C36.0621 19.2266 37.1198 19.6487 37.865 20.4916C38.6088 21.3358 38.9834 22.4822 38.9834 23.9306C38.9834 24.9651 38.78 25.8444 38.3717 26.5686C37.9647 27.2928 37.419 27.8323 36.7399 28.1856C36.0594 28.539 35.3115 28.7156 34.4949 28.7156C33.1353 28.7156 32.0802 28.2949 31.3296 27.4506C30.5791 26.6077 30.2031 25.4614 30.2031 24.0116C30.2031 22.9879 30.4066 22.1167 30.8149 21.3979" fill="black"/>
  <path d="M42.281 27.1979C42.3686 27.3274 42.5666 27.4515 42.8766 27.5647C43.1865 27.6794 43.4991 27.7374 43.8144 27.7374C44.3251 27.7374 44.7092 27.6308 44.9652 27.4191C45.2199 27.206 45.3492 26.9255 45.3492 26.5775C45.3492 26.2296 45.1902 25.9275 44.8763 25.7036C44.5609 25.4811 44.0273 25.2046 43.2768 24.8782L42.82 24.6827C42.0694 24.3671 41.5075 23.9868 41.1383 23.539C40.7677 23.0926 40.5831 22.5154 40.5831 21.8074C40.5831 21.3165 40.73 20.8795 41.0238 20.4924C41.3175 20.1054 41.7298 19.8033 42.2635 19.5861C42.7957 19.369 43.4115 19.2598 44.1068 19.2598C44.6175 19.2598 45.0568 19.2935 45.4206 19.3569C45.7845 19.423 46.1685 19.5106 46.5714 19.6185C46.7897 19.694 46.9528 19.7385 47.0619 19.748V21.8883H45.7723L45.3977 20.6462C45.3331 20.5369 45.1848 20.4398 44.9571 20.3522C44.7294 20.2645 44.468 20.2214 44.1742 20.2214C43.7282 20.2214 43.3711 20.3171 43.1043 20.5073C42.8375 20.6974 42.7041 20.9618 42.7041 21.3003C42.7041 21.6051 42.7971 21.8586 42.9817 22.0596C43.1663 22.2605 43.3671 22.4156 43.5854 22.5248C43.8023 22.6341 44.2052 22.8135 44.7927 23.0643C45.3802 23.3152 45.8667 23.5539 46.2534 23.7831C46.6388 24.0111 46.9608 24.3078 47.2169 24.6732C47.4729 25.0387 47.6009 25.4811 47.6009 26.0044C47.6009 26.8095 47.2842 27.4636 46.6536 27.9639C46.023 28.4643 45.1148 28.7151 43.9276 28.7151C43.3724 28.7151 42.8752 28.6666 42.4346 28.5681C41.9953 28.471 41.4859 28.3402 40.9092 28.1757L40.5508 28.061V25.9059H41.905L42.2796 27.1966L42.281 27.1979Z" fill="black"/>
  <path d="M20.2748 50.4988C20.0363 50.6135 19.8544 50.7416 19.7304 50.8832V55.8085C19.7924 55.8975 19.9191 55.9717 20.1091 56.0337C20.2991 56.0957 20.5093 56.1268 20.7397 56.1268C21.3137 56.1268 21.7719 55.8773 22.1115 55.3769C22.4524 54.8766 22.6222 54.0903 22.6222 53.0195C22.6222 52.1172 22.4753 51.4416 22.1842 50.9965C21.8918 50.5487 21.5078 50.3249 21.0308 50.3249C20.7653 50.3249 20.5133 50.3829 20.2748 50.4988ZM24.1421 54.9049C23.8363 55.5239 23.3902 56.0175 22.8014 56.3843C22.2139 56.7512 21.5132 56.9359 20.6993 56.9359C20.5228 56.9359 20.3395 56.9211 20.1495 56.8887C19.9595 56.8577 19.8059 56.82 19.6914 56.7755L19.7318 57.8773V59.0857L20.9661 59.2448V60.0001H17.0273V59.2448L17.8897 59.0857V50.6688L17.0273 50.4301V49.5143L19.2157 49.2352H19.2426L19.5741 49.5009V50.244C19.7951 49.9688 20.097 49.7315 20.4756 49.5278C20.8556 49.3242 21.272 49.2217 21.722 49.2217C22.5629 49.2217 23.2528 49.5211 23.7905 50.1172C24.3295 50.7146 24.599 51.629 24.599 52.859C24.599 53.6021 24.4467 54.2845 24.1421 54.9022" fill="black"/>
  <path d="M31.0315 56.7373C30.8981 56.6132 30.8321 56.4271 30.8321 56.1803V55.8216C30.5936 56.1142 30.2567 56.3732 29.8241 56.5984C29.3916 56.8236 28.9577 56.9369 28.5238 56.9369C27.6749 56.9369 27.0698 56.7171 26.706 56.2801C26.3435 55.8418 26.163 55.1176 26.163 54.1102V50.3663L25.5 50.1802V49.4236L27.7557 49.251H27.7678L28.0333 49.4371V54.1102C28.0333 54.7562 28.1128 55.2066 28.2718 55.4642C28.4308 55.7218 28.7273 55.8499 29.1598 55.8499C29.6813 55.8499 30.1691 55.6449 30.6192 55.239V50.3663L29.7312 50.1681V49.425L32.1324 49.2523H32.158L32.4774 49.4384V55.9686H33.2198L33.2077 56.7252C33.1713 56.7346 33.0083 56.7697 32.7159 56.8317C32.4248 56.8938 32.0745 56.9234 31.6689 56.9234C31.3765 56.9234 31.1649 56.8614 31.0315 56.7373Z" fill="black"/>
  <path d="M36.9515 50.5716C36.717 50.6903 36.5297 50.8251 36.3882 50.9762V55.8219C36.4408 55.919 36.5647 55.9986 36.7588 56.0606C36.9528 56.1226 37.1752 56.1536 37.4217 56.1536C37.9877 56.1536 38.4405 55.8907 38.7814 55.3647C39.1209 54.8374 39.2921 54.0565 39.2921 53.0207C39.2921 52.1279 39.1452 51.4657 38.8541 51.0369C38.5617 50.608 38.1777 50.3936 37.6993 50.3936C37.4339 50.3936 37.1846 50.4543 36.9501 50.5729M33.5625 46.1966L35.9893 45.9053H36.0163L36.3882 46.1575V50.0726C36.6267 49.8339 36.9205 49.6329 37.2695 49.4684C37.6185 49.3052 37.9958 49.2229 38.4041 49.2229C39.253 49.2229 39.9443 49.5223 40.4792 50.1184C41.0142 50.7159 41.2823 51.6289 41.2823 52.8603C41.2823 53.6209 41.1233 54.3114 40.804 54.9304C40.486 55.5495 40.0292 56.039 39.4322 56.3978C38.8353 56.7565 38.1427 56.9359 37.3557 56.9359C36.6564 56.9359 36.0513 56.8765 35.5379 56.7565C35.0259 56.6365 34.6984 56.5286 34.557 56.4301V47.0449L33.5625 46.8857V46.1952V46.1966Z" fill="black"/>
  <path d="M43.1255 47.0867L42.1445 46.9141V46.1979L44.5983 45.9053H44.6239L44.9824 46.1575V55.888L45.9512 55.9945V56.7902H42.1971V55.9945L43.1255 55.8745V47.0867Z" fill="black"/>
  <path d="M47.6901 47.9231C47.5042 47.737 47.4112 47.4983 47.4112 47.207C47.4112 46.8698 47.5163 46.592 47.7292 46.3708C47.9421 46.1497 48.2251 46.0391 48.5781 46.0391C48.9312 46.0391 49.202 46.1348 49.3866 46.325C49.5726 46.5151 49.6656 46.7512 49.6656 47.0357C49.6656 47.3891 49.5591 47.6723 49.3476 47.8854C49.1347 48.0984 48.8382 48.2036 48.4582 48.2036H48.4447C48.1267 48.2036 47.8747 48.1106 47.6901 47.9245M47.7427 50.6703L46.8008 50.4181V49.528L49.2276 49.2354H49.2546L49.6265 49.501V55.8869L50.5145 55.9934V56.7905H46.8143V55.9934L47.7427 55.8734V50.669V50.6703Z" fill="black"/>
  <path d="M51.755 51.1081C52.0609 50.516 52.4975 50.0534 53.0688 49.7203C53.6388 49.3885 54.3045 49.2227 55.0645 49.2227C55.4175 49.2227 55.7221 49.2483 55.9794 49.3022C56.2355 49.3548 56.5238 49.4263 56.8418 49.514L57.2272 49.6205L57.1464 51.8903H55.9929L55.6614 50.4297C55.6089 50.2004 55.3475 50.0844 54.8785 50.0844C54.3827 50.0844 53.9973 50.3029 53.7183 50.7345C53.4394 51.1688 53.2952 51.8458 53.2871 52.7656C53.2871 53.7393 53.4542 54.4851 53.7911 55.003C54.128 55.5208 54.574 55.7784 55.1305 55.7784C55.8029 55.7784 56.4214 55.5977 56.9874 55.2349L57.2919 55.9254C57.0628 56.1722 56.7098 56.4029 56.2368 56.6159C55.7638 56.829 55.2531 56.9342 54.7047 56.9342C53.5728 56.9342 52.7225 56.5836 52.1525 55.8863C51.5825 55.1864 51.2969 54.272 51.2969 53.1391C51.2969 52.3771 51.4505 51.7001 51.755 51.1067" fill="black"/>
  <path d="M59.8248 55.7016C59.8948 55.8081 60.0565 55.9079 60.3085 56.001C60.5605 56.094 60.8152 56.1399 61.0712 56.1399C61.4876 56.1399 61.7988 56.0536 62.0064 55.8809C62.2139 55.7083 62.3176 55.4804 62.3176 55.1972C62.3176 54.9139 62.1896 54.6685 61.9336 54.4878C61.6776 54.3057 61.2437 54.0818 60.6333 53.8175L60.2613 53.6584C59.6509 53.4021 59.1955 53.0919 58.895 52.7291C58.5945 52.3664 58.4436 51.897 58.4436 51.3225C58.4436 50.9233 58.5635 50.5673 58.802 50.253C59.0405 49.9388 59.3774 49.6933 59.8099 49.5167C60.2438 49.34 60.7424 49.251 61.3084 49.251C61.7247 49.251 62.0805 49.2779 62.3769 49.3305C62.672 49.3845 62.9846 49.4546 63.3121 49.5436C63.4886 49.6057 63.622 49.6407 63.711 49.6502V51.3886H62.6626L62.3581 50.3798C62.3042 50.2908 62.1842 50.2112 61.9996 50.1397C61.8137 50.0696 61.6021 50.0332 61.3636 50.0332C61.0011 50.0332 60.7114 50.1101 60.4945 50.2665C60.2775 50.4216 60.1697 50.636 60.1697 50.9098C60.1697 51.158 60.2452 51.363 60.3947 51.5275C60.5443 51.6907 60.7087 51.8161 60.8852 51.9051C61.0618 51.9941 61.3892 52.1398 61.8662 52.3434C62.3432 52.5471 62.7394 52.7413 63.0534 52.9274C63.3673 53.1135 63.6288 53.3549 63.8363 53.6503C64.0438 53.947 64.1489 54.3071 64.1489 54.7332C64.1489 55.3873 63.8915 55.9187 63.3795 56.326C62.8674 56.7333 62.129 56.9369 61.1642 56.9369C60.7128 56.9369 60.3085 56.8978 59.9501 56.8169C59.5916 56.7387 59.178 56.6308 58.709 56.4986L58.418 56.4056V54.6537H59.5189L59.8234 55.7029L59.8248 55.7016Z" fill="black"/>
  <path d="M25.0951 16.4014V17.4142L26.4992 17.6273V25.614L25.5842 23.7515L20.7211 16.4014H20.2266V19.661L20.8356 20.8128L25.9103 28.5379H27.8858V17.6273L29.143 17.4142V16.4014H25.0951Z" fill="black"/>
  <path d="M18.5119 41.847C18.5833 41.9549 18.749 42.0574 19.0077 42.1531C19.2651 42.2489 19.5252 42.2961 19.7879 42.2961C20.2138 42.2961 20.5318 42.2071 20.7447 42.0304C20.9576 41.8537 21.064 41.6204 21.064 41.3318C21.064 41.0432 20.9333 40.791 20.6706 40.6049C20.4091 40.4188 19.9645 40.1908 19.3419 39.9198L18.9619 39.7566C18.338 39.4936 17.8718 39.178 17.5646 38.8058C17.256 38.4349 17.1024 37.9548 17.1024 37.3668C17.1024 36.9595 17.2237 36.594 17.4689 36.273C17.7128 35.952 18.0564 35.7012 18.4997 35.5191C18.9431 35.3384 19.4538 35.248 20.0332 35.248C20.4577 35.248 20.8228 35.275 21.126 35.329C21.4279 35.3843 21.7472 35.4571 22.0827 35.5474C22.2633 35.6108 22.3994 35.6472 22.4897 35.6553V37.4342H21.4171L21.1045 36.4025C21.0506 36.3121 20.9279 36.2299 20.7379 36.157C20.5479 36.0856 20.331 36.0491 20.0871 36.0491C19.7165 36.0491 19.4201 36.1274 19.1991 36.2865C18.9768 36.4456 18.8663 36.6641 18.8663 36.9446C18.8663 37.1982 18.9431 37.4086 19.098 37.5758C19.2516 37.743 19.4187 37.8712 19.5993 37.9629C19.7799 38.0532 20.1154 38.2029 20.6045 38.4106C21.0923 38.6183 21.4966 38.8179 21.8186 39.0081C22.1393 39.1982 22.4075 39.445 22.619 39.7485C22.832 40.0519 22.9384 40.4201 22.9384 40.8544C22.9384 41.5247 22.6756 42.0668 22.1515 42.4849C21.6273 42.9016 20.8713 43.1093 19.8863 43.1093C19.4241 43.1093 19.0118 43.0689 18.6439 42.9879C18.2787 42.9057 17.8556 42.7978 17.3759 42.6616L17.0781 42.5672V40.7748H18.2033L18.5159 41.8483L18.5119 41.847Z" fill="black"/>
  <path d="M28.5248 38.4794C28.5423 38.2259 28.5518 38.0317 28.5518 37.8954C28.5518 36.6911 28.1488 36.0896 27.3444 36.0896C26.9011 36.0896 26.5574 36.2663 26.3136 36.6196C26.0697 36.973 25.9336 37.592 25.9066 38.4808H28.5248V38.4794ZM24.8003 42.0574C24.2168 41.3561 23.9258 40.3985 23.9258 39.1848C23.9258 38.3702 24.0767 37.6635 24.3799 37.066C24.6831 36.4686 25.1102 36.0127 25.6627 35.6945C26.2138 35.3789 26.8526 35.2197 27.5762 35.2197C28.4803 35.2197 29.1783 35.4571 29.6661 35.9332C30.1553 36.4079 30.4086 37.0849 30.4261 37.9629C30.4261 38.5603 30.3897 39.004 30.317 39.2926H25.908C25.943 40.118 26.1384 40.7586 26.4914 41.2145C26.8445 41.6717 27.3457 41.9009 27.9979 41.9009C28.351 41.9009 28.7148 41.8429 29.0894 41.7243C29.464 41.6069 29.7605 41.4667 29.9788 41.3035L30.317 42.0506C30.0731 42.3136 29.6769 42.5564 29.1298 42.7776C28.5814 43.0001 28.0276 43.1107 27.467 43.1107C26.2718 43.1107 25.3838 42.76 24.8003 42.0587" fill="black"/>
  <path d="M31.5131 42.1605L32.4078 42.0512V36.7011L31.54 36.4557V35.5197L33.6435 35.2338H33.6852L34.0235 35.5062V35.8043L33.983 36.9048H34.0235C34.0868 36.7241 34.2364 36.5002 34.4708 36.2332C34.7053 35.9661 35.0017 35.7301 35.3588 35.5265C35.7159 35.3228 36.1027 35.2217 36.519 35.2217C36.7185 35.2217 36.8896 35.2487 37.0351 35.3026V37.3391C36.7643 37.1489 36.4341 37.0531 36.0447 37.0531C35.3844 37.0531 34.8104 37.2298 34.3213 37.5832V42.0377L35.8951 42.1605V42.9616H31.5117V42.1605H31.5131Z" fill="black"/>
  <path d="M37.2109 35.4102H40.7926V36.1978L39.8965 36.3744L41.1322 40.0684L41.5647 41.5074L41.9312 40.1088L43.1386 36.3744L42.2843 36.1978V35.4102H45.2703V36.1978L44.5643 36.3744L42.0404 43.0691H40.4665L37.7661 36.3744L37.2109 36.1978V35.4102Z" fill="black"/>
  <path d="M46.4916 33.8905C46.3016 33.7003 46.2059 33.4562 46.2059 33.1568C46.2059 32.8129 46.3151 32.5283 46.532 32.3018C46.7503 32.0752 47.0387 31.9619 47.3998 31.9619C47.7609 31.9619 48.0372 32.059 48.2272 32.2546C48.4172 32.4488 48.5115 32.6915 48.5115 32.9815C48.5115 33.3429 48.4037 33.6329 48.1868 33.85C47.9685 34.0672 47.6653 34.175 47.2772 34.175H47.2637C46.939 34.175 46.6802 34.0806 46.4902 33.8905M46.5455 36.7011L45.582 36.4435V35.5345L48.0655 35.2351H48.0924L48.4724 35.5075V42.0404L49.3806 42.1482V42.9628H45.5955V42.1482L46.5455 42.0255V36.7024V36.7011Z" fill="black"/>
  <path d="M50.6512 37.1483C50.9638 36.5428 51.4112 36.0694 51.9946 35.7295C52.5781 35.3897 53.2586 35.2197 54.0361 35.2197C54.3972 35.2197 54.7099 35.2467 54.9726 35.3006C55.234 35.3546 55.5291 35.4274 55.8539 35.5178L56.2473 35.627L56.1651 37.9494H54.9847L54.6465 36.4551C54.5926 36.2204 54.3258 36.1017 53.8461 36.1017C53.3394 36.1017 52.9446 36.3243 52.659 36.7666C52.3733 37.2103 52.2264 37.9035 52.2183 38.8435C52.2183 39.8402 52.3895 40.6022 52.7344 41.1322C53.078 41.6622 53.5348 41.9266 54.1048 41.9266C54.792 41.9266 55.4254 41.7418 56.0048 41.3696L56.3174 42.0763C56.0816 42.3298 55.7218 42.5658 55.2381 42.7829C54.7543 43.0001 54.2315 43.108 53.6709 43.108C52.5134 43.108 51.6429 42.7506 51.0595 42.0358C50.476 41.321 50.1836 40.3837 50.1836 39.2252C50.1836 38.4457 50.3399 37.7538 50.6525 37.1469" fill="black"/>
  <path d="M61.8803 38.4794C61.8978 38.2259 61.9072 38.0317 61.9072 37.8954C61.9072 36.6911 61.5043 36.0896 60.6999 36.0896C60.2565 36.0896 59.9129 36.2663 59.669 36.6196C59.4238 36.973 59.289 37.592 59.2621 38.4808H61.8803V38.4794ZM58.1558 42.0574C57.5723 41.3561 57.2812 40.3985 57.2812 39.1848C57.2812 38.3702 57.4322 37.6635 57.7354 37.066C58.0385 36.4686 58.4657 36.0127 59.0182 35.6945C59.5693 35.3789 60.208 35.2197 60.9316 35.2197C61.8358 35.2197 62.5338 35.4571 63.0216 35.9332C63.5107 36.4079 63.7641 37.0849 63.7816 37.9629C63.7816 38.5603 63.7452 39.004 63.6724 39.2926H59.2634C59.2985 40.118 59.4938 40.7586 59.8469 41.2145C60.1999 41.6717 60.7012 41.9009 61.3534 41.9009C61.7064 41.9009 62.0703 41.8429 62.4449 41.7243C62.8195 41.6069 63.1159 41.4667 63.3342 41.3035L63.6724 42.0506C63.4286 42.3136 63.0324 42.5564 62.4853 42.7776C61.9369 43.0001 61.383 43.1107 60.8225 43.1107C59.6272 43.1107 58.7392 42.76 58.1558 42.0587" fill="black"/>
  <path d="M66.3687 41.847C66.4401 41.9549 66.6058 42.0574 66.8646 42.1531C67.1219 42.2489 67.382 42.2961 67.6448 42.2961C68.0706 42.2961 68.3886 42.2071 68.6015 42.0304C68.8144 41.8537 68.9209 41.6204 68.9209 41.3318C68.9209 41.0432 68.7901 40.791 68.5274 40.6049C68.266 40.4188 67.8213 40.1908 67.1987 39.9198L66.8187 39.7566C66.1949 39.4936 65.7286 39.178 65.4214 38.8058C65.1128 38.4349 64.9592 37.9548 64.9592 37.3668C64.9592 36.9595 65.0805 36.594 65.3257 36.273C65.5696 35.952 65.9132 35.7012 66.3566 35.5191C66.7999 35.3384 67.3106 35.248 67.89 35.248C68.3145 35.248 68.6796 35.275 68.9828 35.329C69.2847 35.3843 69.604 35.4571 69.9396 35.5474C70.1201 35.6108 70.2562 35.6472 70.3465 35.6553V37.4342H69.2739L68.9613 36.4025C68.9074 36.3121 68.7848 36.2299 68.5948 36.157C68.4048 36.0856 68.1878 36.0491 67.9439 36.0491C67.5733 36.0491 67.2769 36.1274 67.0559 36.2865C66.8336 36.4456 66.7231 36.6641 66.7231 36.9446C66.7231 37.1982 66.7999 37.4086 66.9548 37.5758C67.1085 37.743 67.2755 37.8712 67.4561 37.9629C67.6367 38.0532 67.9722 38.2029 68.46 38.4106C68.9491 38.6183 69.3534 38.8179 69.6741 39.0081C69.9948 39.1982 70.263 39.445 70.4745 39.7485C70.6861 40.0519 70.7939 40.4201 70.7939 40.8544C70.7939 41.5247 70.5311 42.0668 70.0069 42.4849C69.4828 42.9016 68.7268 43.1093 67.7418 43.1093C67.2796 43.1093 66.8673 43.0689 66.4994 42.9879C66.1342 42.9057 65.7111 42.7978 65.2314 42.6616L64.9336 42.5672V40.7748H66.0588L66.3714 41.8483L66.3687 41.847Z" fill="black"/>
  <path d="M18.9163 26.8975C19.1777 26.9217 19.3826 27.0188 19.5281 27.1874C19.675 27.356 19.7491 27.5812 19.7491 27.8617C19.7491 28.0573 19.7019 28.2299 19.6089 28.3783C19.516 28.528 19.3839 28.6426 19.2141 28.7235C19.043 28.8044 18.8449 28.8463 18.6185 28.8503H18.3895C18.1577 28.8503 17.9542 28.8085 17.7777 28.7276C17.6012 28.6453 17.4651 28.528 17.3694 28.3742C17.2737 28.2205 17.2266 28.0438 17.2266 27.8429C17.2266 27.5718 17.3007 27.3533 17.4476 27.1874C17.5944 27.0215 17.8019 26.9258 18.0701 26.8988V27.3236C17.8936 27.3439 17.7669 27.3951 17.6888 27.4787C17.6106 27.561 17.5715 27.6824 17.5715 27.8429C17.5715 28.029 17.6389 28.1706 17.775 28.2704C17.9097 28.3702 18.1092 28.4201 18.3706 28.4228H18.5889C18.8543 28.4228 19.0578 28.3756 19.1966 28.2798C19.3368 28.1854 19.4055 28.0465 19.4055 27.8631C19.4055 27.6945 19.3677 27.5691 19.2923 27.4841C19.2168 27.4005 19.0915 27.3466 18.9163 27.3236V26.8988V26.8975Z" fill="black"/>
  <path d="M18.8203 26.2214C19.0076 26.2214 19.1545 26.1837 19.2609 26.1055C19.3674 26.0286 19.4213 25.9194 19.4213 25.7818C19.4213 25.6442 19.3674 25.5363 19.2596 25.4595C19.1518 25.3826 18.9941 25.3435 18.7866 25.3435C18.602 25.3435 18.4565 25.3839 18.3487 25.4622C18.2409 25.5417 18.187 25.6496 18.187 25.7858C18.187 25.9221 18.2409 26.0259 18.3473 26.1041C18.4538 26.1823 18.6128 26.2214 18.823 26.2214M18.7852 26.6328C18.606 26.6328 18.4457 26.5977 18.3028 26.5262C18.16 26.4548 18.0495 26.3563 17.9714 26.2268C17.8945 26.0987 17.8555 25.9517 17.8555 25.7858C17.8555 25.539 17.935 25.3394 18.094 25.1857C18.253 25.0319 18.4618 24.9497 18.7246 24.9375H18.8203C19.0008 24.9362 19.1612 24.9699 19.3027 25.04C19.4442 25.1088 19.5533 25.2086 19.6315 25.3367C19.7083 25.4649 19.7474 25.6132 19.7474 25.7831C19.7474 26.0407 19.6611 26.2471 19.49 26.4008C19.3189 26.5546 19.0898 26.6328 18.8055 26.6328H18.7852Z" fill="black"/>
  <path d="M19.7149 24.1533H17.125V24.5633H19.7149V24.1533Z" fill="black"/>
  <path d="M19.7149 23.2705H17.125V23.6805H19.7149V23.2705Z" fill="black"/>
  <path d="M18.1843 22.0693C18.1843 22.1826 18.2233 22.273 18.3015 22.3418C18.3796 22.4105 18.4901 22.455 18.6303 22.4739V21.6931H18.6006C18.4632 21.7025 18.3594 21.7389 18.2894 21.8023C18.2193 21.867 18.1843 21.956 18.1843 22.0693ZM19.7474 22.0194C19.7474 22.2797 19.6652 22.4901 19.5021 22.6506C19.3391 22.8124 19.1208 22.892 18.8486 22.892H18.7974C18.6155 22.892 18.4524 22.8569 18.3096 22.7868C18.1667 22.7167 18.0549 22.6182 17.9754 22.4915C17.8959 22.3647 17.8555 22.2231 17.8555 22.0666C17.8555 21.8185 17.9336 21.6256 18.094 21.4908C18.253 21.3545 18.4753 21.2871 18.7664 21.2871H18.9321V22.4793C19.0817 22.4672 19.2016 22.4173 19.2892 22.3283C19.3768 22.2406 19.4199 22.1287 19.4199 21.9951C19.4199 21.8077 19.3445 21.6553 19.1922 21.5366L19.4037 21.3154C19.5129 21.3896 19.5978 21.4867 19.6571 21.6081C19.7177 21.7295 19.7474 21.867 19.7474 22.0194Z" fill="black"/>
  <path d="M19.4225 20.2202C19.4225 20.1177 19.3928 20.0327 19.3335 19.9653C19.2729 19.8979 19.2001 19.8614 19.1126 19.8574V19.4717C19.2257 19.4757 19.3322 19.5121 19.4306 19.5782C19.5289 19.6457 19.6071 19.7347 19.6637 19.848C19.7203 19.9612 19.7499 20.084 19.7499 20.2148C19.7499 20.4697 19.6677 20.6733 19.502 20.823C19.3362 20.9727 19.1085 21.0483 18.8174 21.0483H18.7757C18.4981 21.0483 18.2758 20.9741 18.1087 20.8257C17.9416 20.6774 17.8594 20.4751 17.8594 20.2188C17.8594 20.0017 17.9227 19.825 18.048 19.6875C18.1747 19.5512 18.3404 19.4798 18.5466 19.473V19.8587C18.4428 19.8628 18.3566 19.8992 18.2879 19.9666C18.2192 20.0341 18.1868 20.119 18.1868 20.2215C18.1868 20.355 18.2353 20.4562 18.331 20.529C18.4267 20.6005 18.5722 20.6369 18.7676 20.6383H18.8336C19.0317 20.6383 19.1786 20.6018 19.2769 20.5304C19.374 20.4589 19.4225 20.3564 19.4225 20.2215" fill="black"/>
  <path d="M17.4492 18.6476H17.8925V18.3252H18.1957V18.6476H19.2144C19.2845 18.6476 19.3344 18.6341 19.3654 18.6058C19.3964 18.5774 19.4125 18.5289 19.4125 18.4588L19.395 18.3145H19.7117C19.7373 18.4089 19.7508 18.4979 19.7508 18.5855C19.7508 18.8998 19.5769 19.0576 19.2293 19.0576H18.1957V19.3583H17.8925V19.0576H17.4492V18.6476Z" fill="black"/>
  <path d="M19.7137 17.9856H17.8905V17.5756H19.7137V17.9856ZM17.4175 18.0112C17.3542 18.0112 17.3016 17.991 17.2612 17.9505C17.2194 17.91 17.1992 17.8534 17.1992 17.7792C17.1992 17.705 17.2208 17.6484 17.2612 17.6066C17.303 17.5661 17.3555 17.5459 17.4175 17.5459C17.4795 17.5459 17.5307 17.5661 17.5711 17.6066C17.6129 17.647 17.6331 17.705 17.6331 17.7792C17.6331 17.8534 17.6129 17.91 17.5711 17.9505C17.5307 17.991 17.4782 18.0112 17.4175 18.0112Z" fill="black"/>
  <path d="M19.7148 16.9861H18.1948V17.2653H17.8916V16.9861H17.7245C17.5224 16.9861 17.3661 16.9294 17.2556 16.8175C17.1451 16.7056 17.0898 16.5478 17.0898 16.3455C17.0898 16.274 17.0993 16.1971 17.1195 16.1162L17.4402 16.1257C17.4308 16.1702 17.4267 16.2228 17.4267 16.2821C17.4267 16.4776 17.5278 16.5761 17.7286 16.5761H17.8903V16.2052H18.1934V16.5761H19.7134V16.9861H19.7148Z" fill="black"/>
  <path d="M9.50023 37.9926C8.27535 37.2063 7.12863 36.2879 6.09375 35.2602L7.66628 33.6729C8.59067 34.5886 9.61207 35.4086 10.7049 36.1099L9.50023 37.9926Z" fill="#06708E"/>
  <path d="M3.37818 31.9387C1.16828 28.5752 0 24.6614 0 20.6195C0 9.25038 9.24251 0 20.6019 0C25.0137 0 29.2219 1.37562 32.7699 3.97851L31.4493 5.78165C28.2867 3.46198 24.5353 2.23606 20.6019 2.23606C10.4741 2.23606 2.23416 10.483 2.23416 20.6195C2.23416 24.2231 3.27443 27.712 5.24447 30.7087L3.37818 31.9373V31.9387Z" fill="#06708E"/>
  </svg>
  