<svg width="31" height="32" viewBox="0 0 31 32" fill="none" xmlns="http://www.w3.org/2000/svg">
<circle cx="1.52772" cy="1.52772" r="0.890782" transform="matrix(-1 0 0 1 11.793 21.2852)" stroke="#A1A5FF" stroke-width="1.27388"/>
<circle cx="1.52772" cy="1.52772" r="0.890782" transform="matrix(-1 0 0 1 8.125 18.8408)" stroke="#A1A5FF" stroke-width="1.27388"/>
<path d="M5.18149 23.796C5.18159 23.796 5.18164 23.7961 5.18164 23.7961C5.1815 23.7965 5.15741 23.7888 5.08829 23.7679C5.01275 23.745 4.90652 23.713 4.77948 23.6749C4.52555 23.5986 4.19012 23.4983 3.85439 23.3979C3.18286 23.1972 2.51136 22.997 2.49052 22.9908C1.97251 22.8367 1.3347 23.1567 1.1329 23.835C0.931095 24.5134 1.29029 25.13 1.80829 25.2841C1.82913 25.2903 2.5009 25.4897 3.17295 25.6886C3.50894 25.7881 3.84469 25.8874 4.09901 25.9623C4.22624 25.9998 4.33268 26.0311 4.40844 26.0532C4.47776 26.0735 4.50214 26.0802 4.50203 26.0806C4.50203 26.0807 4.50196 26.0807 4.50184 26.0807M5.18149 23.796C5.64964 23.987 5.95898 24.576 5.76912 25.2142C5.57926 25.8525 4.99827 26.1766 4.50184 26.0807M5.18149 23.796C5.17722 23.7942 5.17293 23.7925 5.16864 23.7909C5.17582 23.7937 5.1806 23.7955 5.18149 23.796ZM4.50184 26.0807C4.50082 26.0806 4.49582 26.0795 4.48828 26.0779C4.49279 26.0789 4.49731 26.0798 4.50184 26.0807Z" stroke="black" stroke-width="1.27388"/>
<path d="M3.80078 23.3525L3.10382 25.6954" stroke="black" stroke-width="1.27388" stroke-linecap="round" stroke-linejoin="round"/>
<path d="M18.5148 7.12834C17.9604 6.03912 16.9111 4.51614 14.9504 5.51397C12.772 6.62269 13.7427 8.52852 14.1585 9.34544L25.5409 30.4504" stroke="black" stroke-width="1.27388" stroke-linecap="round" stroke-linejoin="round"/>
<path d="M22.789 30.4511L11.6431 9.12305C11.077 8.01065 10.3559 4.92181 13.6236 3.25767C17.0723 1.50142 19.597 3.86874 20.692 6.02036C20.923 6.4742 21.1671 7.49276 20.2958 7.93624C19.4244 8.37972 18.7446 7.5829 18.5136 7.12906" stroke="black" stroke-width="1.27388" stroke-linecap="round" stroke-linejoin="round"/>
<path d="M25.2344 24.9517L23.0956 21.2852" stroke="#A1A5FF" stroke-width="1.27388" stroke-linecap="round" stroke-linejoin="round"/>
<path d="M22.1797 19.7573L21.5686 18.5352" stroke="#A1A5FF" stroke-width="1.27388" stroke-linecap="round" stroke-linejoin="round"/>
<path d="M9.34766 4.78613C8.98365 5.49907 8.79503 6.92495 9.04211 8.45267" stroke="#A1A5FF" stroke-width="1.27388" stroke-linecap="round" stroke-linejoin="round"/>
</svg>
