<svg width="61" height="62" viewBox="0 0 61 62" fill="none" xmlns="http://www.w3.org/2000/svg">
<circle cx="40.803" cy="44.89" r="1.75283" stroke="#A1A5FF" stroke-width="2.50667"/>
<circle cx="48.0179" cy="40.0804" r="1.75283" stroke="#A1A5FF" stroke-width="2.50667"/>
<path d="M52.1415 51.3208C51.1647 51.5096 50.0215 50.8718 49.6479 49.6159C49.2743 48.36 49.883 47.201 50.8042 46.8252C50.804 46.8253 50.8039 46.8254 50.8039 46.8254C50.8042 46.8262 50.8516 46.8111 50.9876 46.7699C51.1362 46.7249 51.3452 46.662 51.5952 46.5869C52.0949 46.4369 52.7549 46.2393 53.4156 46.0419C54.737 45.6469 56.0583 45.2529 56.0993 45.2407C57.1186 44.9375 58.3736 45.5672 58.7707 46.902C59.1678 48.2369 58.461 49.4502 57.4417 49.7534C57.4007 49.7656 56.0789 50.1579 54.7565 50.5494C54.0953 50.7452 53.4346 50.9405 52.9342 51.088C52.6838 51.1618 52.4744 51.2233 52.3253 51.2669C52.1889 51.3067 52.1409 51.32 52.1412 51.3208C52.1412 51.3208 52.1413 51.3209 52.1415 51.3208ZM52.1415 51.3208C52.1435 51.3207 52.1534 51.3186 52.1682 51.3155C52.1593 51.3173 52.1505 51.3191 52.1415 51.3208Z" stroke="black" stroke-width="2.50667"/>
<path d="M53.5234 45.9521L54.8949 50.5623" stroke="black" stroke-width="2.50667" stroke-linecap="round" stroke-linejoin="round"/>
<path d="M24.5659 14.0272C25.6567 11.8839 27.7216 8.88711 31.5796 10.8506C35.8663 13.0322 33.9562 16.7824 33.138 18.3899L10.7403 59.9191" stroke="black" stroke-width="2.50667" stroke-linecap="round" stroke-linejoin="round"/>
<path d="M16.1546 59.92L38.0869 17.9518C39.2009 15.7629 40.6197 9.68484 34.1897 6.41026C27.4036 2.95441 22.4356 7.61268 20.2809 11.8465C19.8264 12.7396 19.346 14.7438 21.0607 15.6165C22.7753 16.4891 24.113 14.9212 24.5675 14.0281" stroke="black" stroke-width="2.50667" stroke-linecap="round" stroke-linejoin="round"/>
<path d="M11.3477 49.0986L15.5563 41.8838" stroke="#A1A5FF" stroke-width="2.50667" stroke-linecap="round" stroke-linejoin="round"/>
<path d="M17.3555 38.8766L18.5579 36.4717" stroke="#A1A5FF" stroke-width="2.50667" stroke-linecap="round" stroke-linejoin="round"/>
<path d="M42.6055 9.41699C43.3217 10.8199 43.6929 13.6256 43.2067 16.6318" stroke="#A1A5FF" stroke-width="2.50667" stroke-linecap="round" stroke-linejoin="round"/>
</svg>
