<?xml version="1.0" encoding="UTF-8"?><svg id="a" xmlns="http://www.w3.org/2000/svg" viewBox="0 0 80 80"><defs><style>.b,.c{stroke-width:0px;}.c{fill:#a1a5ff;}</style></defs><path class="c" d="M46.24,49.7c-2.21,0-4.01,1.8-4.01,4.01s1.8,4.01,4.01,4.01,4.01-1.8,4.01-4.01-1.8-4.01-4.01-4.01ZM46.24,55.22c-.83,0-1.51-.68-1.51-1.51s.68-1.51,1.51-1.51,1.51.68,1.51,1.51-.68,1.51-1.51,1.51Z"/><path class="c" d="M57.59,42.13c-2.21,0-4.01,1.8-4.01,4.01s1.8,4.01,4.01,4.01,4.01-1.8,4.01-4.01-1.8-4.01-4.01-4.01ZM57.59,47.65c-.83,0-1.51-.68-1.51-1.51s.68-1.51,1.51-1.51,1.51.68,1.51,1.51-.68,1.51-1.51,1.51Z"/><path class="c" d="M19.9,49.82c-.6-.35-1.36-.15-1.71.45l-4.92,8.44c-.35.6-.15,1.36.45,1.71.2.12.42.17.63.17.43,0,.85-.22,1.08-.62l4.92-8.44c.35-.6.15-1.36-.45-1.71Z"/><path class="c" d="M24.29,42.47c-.6-.35-1.36-.15-1.71.45l-1.86,3.19c-.35.6-.15,1.36.45,1.71.2.12.42.17.63.17.43,0,.85-.22,1.08-.62l1.86-3.19c.35-.6.15-1.36-.45-1.71Z"/><path class="c" d="M50.37,11.8c-.62.3-.89,1.04-.59,1.67.73,1.54,1.23,4.59.61,7.66-.14.68.3,1.34.98,1.47.08.02.17.03.25.03.58,0,1.1-.41,1.22-1,.65-3.21.34-6.83-.8-9.22-.29-.62-1.04-.89-1.67-.59Z"/><path class="b" d="M70.94,57.57c-.88-2.94-3.77-4.69-6.45-3.88l-4.9,1.47s-.01,0-.02,0c0,0,0,0-.01,0l-4.44,1.33-.44.14c-2.45,1-3.67,3.85-2.84,6.63.73,2.45,2.83,4.08,5.1,4.08.29,0,.59-.03.89-.08l.8-.15.02-.08,4.09-1.21s0,0,.01,0c0,0,0,0,0,0l3.29-.97c.92-.27,1.56-.46,1.62-.48,2.68-.8,4.15-3.84,3.28-6.78ZM57.31,64.8c-1.13.19-2.58-.59-3.08-2.26-.5-1.67.29-3.12,1.34-3.58l3.52-1.05,1.74,5.85-2.13.63-1.39.41ZM66.96,61.94s-.69.2-1.63.48l-2.1.62-1.74-5.86,3.72-1.11c1.19-.36,2.8.39,3.34,2.2.54,1.81-.41,3.32-1.58,3.67Z"/><path class="b" d="M41.63,8.29c-3.91-1.99-7.82-2.05-11.32-.18-3.61,1.93-5.7,5.27-6.63,7.09-1.07,2.11-.92,4.88,1.46,6.09,2.37,1.21,4.71-.29,5.78-2.41,0,0,0,0,0-.01,1.84-3.6,3.78-4.55,6.52-3.16,3.24,1.65,2.85,4.04,1.29,7.11l-26.2,48.58c-.33.61-.1,1.37.51,1.69.19.1.39.15.59.15.44,0,.88-.24,1.1-.66l26.21-48.61c.93-1.83,3.75-7.38-2.37-10.5-2.79-1.42-6.78-1.84-9.88,4.26,0,0,0,0,0,0-.07.13-1.06,1.99-2.42,1.3-1.38-.7-.41-2.65-.36-2.73,1.35-2.65,3.38-4.84,5.58-6.02,2.79-1.49,5.82-1.42,9.01.21,2.88,1.47,4.54,3.58,4.92,6.29.3,2.17-.3,4.34-.9,5.52l-25.65,49.09c-.32.61-.08,1.37.53,1.69.18.1.38.14.58.14.45,0,.89-.24,1.11-.67l25.66-49.1c1.76-3.46,2.95-11.08-5.11-15.18Z"/></svg>