<svg width="31" height="33" viewBox="0 0 31 33" fill="none" xmlns="http://www.w3.org/2000/svg">
<path d="M5.18343 23.7772C5.18343 25.1237 5.47866 26.1767 5.96955 27.0077C6.46073 27.8391 7.17565 28.4953 8.08637 29.0053C9.93474 30.0402 12.5381 30.4431 15.45 30.4431C18.3638 30.4431 20.8577 30.0394 22.5991 29.0144C24.2631 28.035 25.3194 26.4446 25.3194 23.7772C25.3194 20.8104 25.3142 15.5885 24.0131 11.1187C23.364 8.88861 22.4116 6.91811 21.039 5.51408C19.6898 4.13396 17.8984 3.26164 15.45 3.26164C12.8923 3.26164 11.0231 4.14155 9.62042 5.52507C8.19561 6.93043 7.20907 8.90012 6.53694 11.1268C5.18898 15.5923 5.18343 20.81 5.18343 23.7772Z" stroke="black" stroke-width="1.70492"/>
<path d="M27.9318 17.9092C28.0938 20.2642 28.0938 22.3987 28.0938 23.9316C28.0938 25.8982 27.6009 27.5234 26.7325 28.8296M22.295 32.0001C23.3562 31.5914 24.3076 31.0493 25.1132 30.3669" stroke="#E5B269" stroke-width="1.70492" stroke-linecap="round"/>
<path d="M18.4219 3.11364C18.0868 2.00453 17.3361 1 15.6549 1C13.9115 1 13.133 2.00453 12.7855 3.11364" stroke="black" stroke-width="1.70492" stroke-linecap="round"/>
<path d="M7.85156 8.04634C8.73125 11.7434 10.7016 15.0918 15.1148 15.0918C19.6914 15.0918 21.7347 11.7434 22.647 8.04634" stroke="black" stroke-width="1.70492" stroke-linecap="round"/>
<path d="M23.2397 8.41675C23.2498 8.36103 24.3911 6.13892 24.4709 5.5874C24.6259 4.52205 24.412 3.43159 23.1593 2.84587C21.7919 2.20657 20.7605 2.82151 20.0231 3.68817" stroke="black" stroke-width="1.70492" stroke-linecap="round"/>
<path d="M7.42045 8.41675C7.41038 8.36103 6.26908 6.13892 6.18926 5.5874C6.03426 4.52205 6.24815 3.43159 7.50089 2.84587C8.86824 2.20657 9.89968 2.82151 10.637 3.68817" stroke="black" stroke-width="1.70492" stroke-linecap="round"/>
<path d="M9.40751 22.8406C9.40751 23.8063 9.57436 24.4434 9.81124 24.8722C10.0393 25.2849 10.3641 25.5633 10.8058 25.762C11.2667 25.9694 11.8568 26.0899 12.5913 26.1524C13.3248 26.2148 14.1403 26.2154 15.0454 26.2154C16.8979 26.2154 18.4264 26.2012 19.5114 25.7518C20.0171 25.5424 20.3872 25.2509 20.6423 24.8371C20.903 24.4142 21.0889 23.7894 21.0889 22.8406C21.0889 21.8917 20.903 21.2669 20.6423 20.844C20.3872 20.4302 20.0171 20.1387 19.5114 19.9293C18.4264 19.4799 16.8979 19.4657 15.0454 19.4657C14.1403 19.4657 13.3248 19.4663 12.5913 19.5287C11.8568 19.5912 11.2667 19.7117 10.8058 19.9191C10.3641 20.1178 10.0393 20.3962 9.81124 20.8089C9.57436 21.2377 9.40751 21.8749 9.40751 22.8406Z" stroke="#E5B269" stroke-width="1.70492"/>
<line y1="-0.852462" x2="11.2727" y2="-0.852462" transform="matrix(-1 0 0 1 20.5312 22.1367)" stroke="#E5B269" stroke-width="1.70492"/>
<path d="M14.8984 12.9766V18.6129" stroke="#E5B269" stroke-width="1.70492" stroke-linecap="round" stroke-linejoin="round"/>
<path d="M13.6369 11.5687C13.6369 12.2652 14.2016 12.8299 14.8981 12.8299C15.5946 12.8299 16.1593 12.2652 16.1593 11.5687C16.1593 10.8722 15.5946 10.3075 14.8981 10.3075C14.2016 10.3075 13.6369 10.8722 13.6369 11.5687Z" stroke="#E5B269" stroke-width="1.70492"/>
<path d="M3.97869 10.1592C3.74384 10.9811 3.20369 13.1183 2.92188 15.091" stroke="#E5B269" stroke-width="1.70492" stroke-linecap="round" stroke-linejoin="round"/>
</svg>
