<svg width="61" height="65" viewBox="0 0 61 65" fill="none" xmlns="http://www.w3.org/2000/svg">
<path d="M50.7998 46.8201C50.7998 49.4697 50.2189 51.5418 49.253 53.1769C48.2864 54.813 46.8797 56.1043 45.0876 57.1077C41.4505 59.1443 36.3278 59.9369 30.5979 59.9369C24.8643 59.9369 19.9569 59.1425 16.5303 57.1257C13.256 55.1985 11.1774 52.0689 11.1774 46.8201C11.1774 40.9823 11.1877 30.707 13.7478 21.9115C15.0251 17.5233 16.8992 13.6458 19.6001 10.8831C22.2551 8.16736 25.7801 6.45086 30.5979 6.45086C35.6308 6.45086 39.3089 8.1823 42.069 10.9047C44.8727 13.6701 46.8139 17.5459 48.1365 21.9274C50.7889 30.7145 50.7998 40.9815 50.7998 46.8201Z" stroke="black" stroke-width="3.35485"/>
<path d="M6.03733 35.2734C5.71875 39.9075 5.71875 44.1077 5.71875 47.124C5.71875 50.9938 6.68858 54.1918 8.39739 56.7621M17.1292 63.0007C15.0411 62.1965 13.169 61.1298 11.5837 59.787" stroke="#E5B269" stroke-width="3.35485" stroke-linecap="round"/>
<path d="M24.75 6.15909C25.4094 3.97666 26.8864 2 30.1946 2C33.6253 2 35.1571 3.97666 35.8409 6.15909" stroke="black" stroke-width="3.35485" stroke-linecap="round"/>
<path d="M45.5469 15.8649C43.8159 23.1396 39.9387 29.7285 31.2547 29.7285C22.2491 29.7285 18.2284 23.1396 16.4332 15.8649" stroke="black" stroke-width="3.35485" stroke-linecap="round"/>
<path d="M15.2681 16.5944C15.2483 16.4848 13.0025 12.1123 12.8454 11.027C12.5404 8.93067 12.9613 6.78493 15.4264 5.63239C18.117 4.37441 20.1466 5.58445 21.5975 7.28981" stroke="black" stroke-width="3.35485" stroke-linecap="round"/>
<path d="M46.3999 16.5944C46.4197 16.4848 48.6654 12.1123 48.8225 11.027C49.1275 8.93067 48.7066 6.78493 46.2416 5.63239C43.551 4.37441 41.5214 5.58445 40.0705 7.28981" stroke="black" stroke-width="3.35485" stroke-linecap="round"/>
<path d="M42.4877 44.9764C42.4877 46.8766 42.1594 48.1305 41.6932 48.9742C41.2446 49.7862 40.6053 50.3341 39.7363 50.7251C38.8293 51.1331 37.6682 51.3703 36.2228 51.4932C34.7794 51.616 33.1747 51.6171 31.3938 51.6171C27.7485 51.6171 24.7409 51.5892 22.6058 50.705C21.6107 50.2929 20.8824 49.7193 20.3805 48.9051C19.8674 48.0729 19.5016 46.8436 19.5016 44.9764C19.5016 43.1092 19.8674 41.8799 20.3805 41.0477C20.8824 40.2335 21.6107 39.6598 22.6058 39.2478C24.7409 38.3635 27.7485 38.3356 31.3938 38.3356C33.1747 38.3356 34.7794 38.3368 36.2228 38.4596C37.6682 38.5825 38.8293 38.8197 39.7363 39.2277C40.6053 39.6187 41.2446 40.1665 41.6932 40.9786C42.1594 41.8223 42.4877 43.0761 42.4877 44.9764Z" stroke="#E5B269" stroke-width="3.35485"/>
<line x1="20.5977" y1="41.9144" x2="42.7795" y2="41.9144" stroke="#E5B269" stroke-width="3.35485"/>
<path d="M31.6836 25.5674V36.6583" stroke="#E5B269" stroke-width="3.35485" stroke-linecap="round" stroke-linejoin="round"/>
<path d="M34.1681 22.7958C34.1681 24.1664 33.057 25.2775 31.6864 25.2775C30.3158 25.2775 29.2048 24.1664 29.2048 22.7958C29.2048 21.4252 30.3158 20.3141 31.6864 20.3141C33.057 20.3141 34.1681 21.4252 34.1681 22.7958Z" stroke="#E5B269" stroke-width="3.35485"/>
<path d="M53.1705 20.0234C53.6326 21.6409 54.6955 25.8462 55.25 29.728" stroke="#E5B269" stroke-width="3.35485" stroke-linecap="round" stroke-linejoin="round"/>
</svg>
