<?xml version="1.0" encoding="UTF-8"?><svg id="a" xmlns="http://www.w3.org/2000/svg" viewBox="0 0 80 80"><defs><style>.b,.c{stroke-width:0px;}.c{fill:#e5b269;}</style></defs><path class="b" d="M59.72,30.37c-.53-1.74-1.14-3.35-1.81-4.84,1.06-1.69,2.39-4.06,2.57-6.06.6-4.16-1.52-6.09-3.42-6.97-3.32-1.55-6.56-.58-8.7,2.5-.3-.14-.6-.29-.91-.41-.03-.11-.07-.22-.1-.34-.65-2.26-1.64-5.68-6.92-5.68-4.82,0-6.05,3.5-6.73,5.78-.62.23-1.23.49-1.81.79-.04-.21-.11-.41-.26-.58-2.91-3.42-5.93-3.01-7.96-2.06-1.89.88-4.02,2.81-3.42,6.88.12,1.78,1.46,4.31,2.65,6.37-.61,1.43-1.17,2.96-1.65,4.61-2.75,9.44-2.75,20.53-2.75,26.48,0,5.53,2.04,9.42,6.23,11.89,3.57,2.1,8.6,3.12,15.39,3.12s12.11-1.05,15.81-3.13c2.11-1.18,3.74-2.72,4.84-4.58,1.19-2.02,1.8-4.48,1.8-7.31,0-5.96,0-17.04-2.85-26.48ZM40.12,15.74c4.57,0,8.21,1.41,11.16,4.31,1.48,1.46,2.77,3.32,3.88,5.54-1.44,5.61-5.1,12.07-14.35,12.07-9.89,0-13.73-6.36-15.19-11.87,1.1-2.33,2.39-4.27,3.86-5.78,2.81-2.88,6.29-4.27,10.65-4.27ZM56,14.76c1.06.49,2.42,1.48,1.99,4.42-.08.92-.57,2.17-1.44,3.73-1.04-1.79-2.21-3.35-3.52-4.64-.78-.77-1.62-1.44-2.49-2.03,1.43-1.94,3.33-2.47,5.46-1.48ZM40.43,11.07c2.72,0,3.58,1.1,4.13,2.65-1.4-.31-2.88-.48-4.44-.48-1.21,0-2.38.1-3.49.3.66-1.54,1.62-2.47,3.8-2.47ZM22.73,19.11c-.42-2.86.94-3.85,2-4.35,1.16-.54,2.95-.99,4.99,1.42.06.07.14.12.22.17-.79.57-1.54,1.19-2.25,1.91-1.28,1.31-2.43,2.9-3.45,4.74-.94-1.77-1.45-3.06-1.51-3.9ZM58.62,62.88c-.88,1.49-2.16,2.69-3.9,3.67-3.33,1.86-8.24,2.81-14.59,2.81s-11-.93-14.13-2.78c-3.41-2.01-5-5.1-5-9.74,0-5.83,0-16.69,2.65-25.78.17-.58.35-1.15.53-1.7,2.87,6.99,8.66,10.8,16.63,10.8s13.09-3.89,15.86-11.05c.23.64.45,1.3.66,1.98,2.74,9.08,2.74,19.93,2.74,25.75,0,2.38-.49,4.41-1.45,6.03Z"/><path class="c" d="M15.27,57.16c0-3.18,0-7.53.33-12.35.05-.69-.47-1.29-1.16-1.33-.71-.04-1.29.47-1.33,1.16-.34,4.91-.34,9.31-.34,12.52,0,4.16,1.02,7.79,3.02,10.8.24.36.64.56,1.04.56.24,0,.48-.07.69-.21.57-.38.73-1.16.35-1.73-1.73-2.6-2.6-5.76-2.6-9.42Z"/><path class="c" d="M24.79,71.94c-1.34-.58-2.89-1.56-3.76-2.4-.5-.48-1.29-.46-1.77.03-.48.5-.46,1.29.03,1.77,1.24,1.2,3.16,2.32,4.5,2.89.16.07.33.1.49.1.49,0,.95-.28,1.15-.76.27-.63-.02-1.37-.66-1.64Z"/><path class="c" d="M50.22,47.74c-1.05-.47-2.35-.76-4.09-.91-1.58-.13-3.32-.13-5.17-.13-3.68,0-7.16,0-9.7,1.05-1.31.54-2.27,1.32-2.92,2.39-.75,1.21-1.11,2.77-1.11,4.78s.36,3.57,1.11,4.78c.66,1.06,1.61,1.85,2.92,2.39,2.54,1.05,6.02,1.05,9.7,1.05,1.85,0,3.59,0,5.17-.13,1.74-.15,3.04-.44,4.09-.91,1.19-.53,2.05-1.31,2.63-2.37.67-1.2.99-2.77.99-4.8s-.32-3.59-.99-4.8c-.59-1.06-1.45-1.84-2.63-2.37ZM32.21,50.05c2.08-.86,5.32-.86,8.74-.86,1.79,0,3.49,0,4.96.12,1.43.12,2.5.35,3.28.7.69.31,1.15.71,1.47,1.3.09.17.17.37.25.58h-20.67c.07-.16.14-.32.22-.45.38-.61.93-1.05,1.75-1.39ZM50.66,58.5c-.32.59-.78.99-1.47,1.3-.78.35-1.85.58-3.28.7-1.47.12-3.17.12-4.96.12-3.42,0-6.66,0-8.74-.86-.82-.34-1.37-.78-1.75-1.39-.49-.79-.74-1.96-.74-3.47,0-.18.02-.34.02-.51h21.57c0,.17.02.33.02.51,0,1.57-.23,2.78-.68,3.59Z"/><path class="c" d="M40.53,35.49c2.47,0,4.47-2.01,4.47-4.47s-2.01-4.47-4.47-4.47-4.47,2.01-4.47,4.47,2.01,4.47,4.47,4.47ZM40.53,29.05c1.09,0,1.97.88,1.97,1.97s-.88,1.97-1.97,1.97-1.97-.88-1.97-1.97.88-1.97,1.97-1.97Z"/><path class="c" d="M65,28.39c-.19-.67-.89-1.04-1.54-.86-.66.19-1.05.88-.86,1.54.5,1.74,1.58,6.06,2.15,10.02.09.62.62,1.07,1.24,1.07.06,0,.12,0,.18-.01.68-.1,1.16-.73,1.06-1.41-.58-4.09-1.71-8.56-2.22-10.35Z"/></svg>