<?xml version="1.0" encoding="UTF-8"?><svg id="a" xmlns="http://www.w3.org/2000/svg" viewBox="0 0 80 80"><defs><style>.b,.c{stroke-width:0px;}.c{fill:#c5dc7c;}</style></defs><path class="b" d="M63.71,22.79c-.72-.56-1.61-.8-2.5-.68-.9.12-1.7.58-2.25,1.29l-4.7,6.12c-.42.55-.32,1.33.23,1.75.55.42,1.33.32,1.75-.23l4.7-6.12c.14-.19.35-.31.58-.33.24-.03.46.03.65.18.38.3.45.85.15,1.23l-6.65,8.54-5.62-4.37,6.66-8.56c1.14-1.47.88-3.59-.59-4.74-.71-.56-1.6-.8-2.5-.68-.9.12-1.7.58-2.25,1.29l-4.7,6.12c-.42.55-.32,1.33.23,1.75.55.42,1.33.32,1.75-.23l4.7-6.12c.14-.19.35-.31.58-.34s.46.03.65.18c.38.3.45.85.15,1.23l-6.66,8.57-6.88-5.35c-1.16-.91-2.85-.7-3.75.47l-1.75,2.25c-.91,1.16-.7,2.84.47,3.75l1.26.98-5.34,6.87c-.91,1.16-1.3,2.61-1.12,4.07.18,1.42.89,2.68,1.99,3.58l-1.98,2.54c-.5.64-.72,1.45-.62,2.25.1.81.51,1.53,1.16,2.03l1.03.8-5.14,7.01c-2.64,3.6-6,6.48-9.71,8.31-3.37,1.67-6.72,2.55-9.7,2.55-.69,0-1.25.56-1.25,1.25s.56,1.25,1.25,1.25c3.36,0,7.1-.97,10.81-2.81,4.07-2.01,7.74-5.15,10.61-9.08l5.1-6.95.8.62c.56.43,1.22.64,1.87.64.91,0,1.81-.4,2.41-1.18l1.97-2.54.47.36c.98.76,2.16,1.16,3.38,1.16.23,0,.46-.01.7-.04,1.46-.18,2.77-.92,3.67-2.09l5.35-6.87,1.26.98c.49.38,1.06.56,1.64.56.8,0,1.59-.35,2.11-1.03l1.75-2.25c.91-1.16.7-2.85-.47-3.75l-3.76-2.93,6.65-8.54c1.14-1.47.88-3.59-.59-4.74ZM37.63,52.96c-.19.24-.54.29-.78.1l-3.8-2.95c-.16-.12-.2-.28-.21-.37s-.01-.25.11-.41l1.82-2.34,4.67,3.63-1.82,2.33ZM47.81,49.82c-.49.64-1.21,1.04-2.01,1.14-.8.1-1.59-.12-2.23-.61l-8.98-6.99c-.64-.5-1.04-1.21-1.14-2.01-.1-.8.12-1.59.61-2.23l5.34-6.87,3.47,2.7,10.27,7.99-5.35,6.87ZM59.91,41.21l-1.75,2.25c-.06.08-.17.09-.24.03l-20.21-15.72c-.06-.05-.08-.18-.03-.24l1.75-2.25s.09-.06.14-.06c.04,0,.07,0,.1.03l7.86,6.11s0,0,0,0c0,0,0,0,0,0l7.59,5.9s0,0,0,0c0,0,0,0,0,0l4.75,3.69c.06.05.08.18.03.24Z"/><path class="c" d="M26.04,52.76l-3.43,4.55c-2.01,2.66-4.62,4.7-7.57,5.89-1.78.72-4.44,1.58-7.05,1.58-.69,0-1.25.56-1.25,1.25s.56,1.25,1.25,1.25c3.01,0,6-.96,7.99-1.76,3.36-1.36,6.34-3.68,8.62-6.7l3.43-4.55c.42-.55.31-1.33-.25-1.75s-1.33-.3-1.75.25Z"/><path class="c" d="M61.01,46.94l-2.12,2.12c-.14.1-.64.09-.86-.13-.04-.04-.08-.07-.12-.11l-1.66-1.28c-.55-.42-1.33-.32-1.75.23s-.32,1.33.23,1.75l1.61,1.23c.6.57,1.45.85,2.27.85.77,0,1.52-.25,2.04-.77l2.13-2.13c.49-.49.49-1.28,0-1.77s-1.28-.49-1.77,0Z"/><path class="c" d="M53.43,51.11c-.54-.43-1.33-.34-1.76.2-.43.54-.34,1.33.2,1.76l3.56,2.84c.23.18.51.27.78.27.37,0,.73-.16.98-.47.43-.54.34-1.33-.2-1.76l-3.56-2.84Z"/><path class="c" d="M58.7,14.23c2.06,0,3.74-1.68,3.74-3.74s-1.68-3.74-3.74-3.74-3.74,1.68-3.74,3.74,1.68,3.74,3.74,3.74ZM58.7,9.25c.68,0,1.24.56,1.24,1.24s-.56,1.24-1.24,1.24-1.24-.56-1.24-1.24.56-1.24,1.24-1.24Z"/><path class="c" d="M68.64,13.38c-2.06,0-3.74,1.68-3.74,3.74s1.68,3.74,3.74,3.74,3.74-1.68,3.74-3.74-1.68-3.74-3.74-3.74ZM68.64,18.36c-.68,0-1.24-.55-1.24-1.24s.56-1.24,1.24-1.24,1.24.56,1.24,1.24-.55,1.24-1.24,1.24Z"/></svg>