<svg width="63" height="61" viewBox="0 0 63 61" fill="none" xmlns="http://www.w3.org/2000/svg">
<rect x="29.1433" y="15.1894" width="25.693" height="5.13867" rx="1.28461" transform="rotate(37.8746 29.1433 15.1894)" stroke="black" stroke-width="2.56921"/>
<path d="M36.6878 16.0579L40.9297 10.5266C41.5782 9.68096 42.7913 9.52511 43.6326 10.1794V10.1794C44.4698 10.8305 44.6206 12.0371 43.9694 12.8743L38.0502 20.4848" stroke="black" stroke-width="2.56921" stroke-linecap="round"/>
<path d="M42.7535 20.3861C42.3051 20.9359 42.3872 21.7451 42.937 22.1935C43.4868 22.6419 44.296 22.5598 44.7444 22.01L42.7535 20.3861ZM47.9962 15.9907L47.0007 15.1788L47.0007 15.1788L47.9962 15.9907ZM44.7444 22.01L48.9917 16.8027L47.0007 15.1788L42.7535 20.3861L44.7444 22.01ZM50.0314 17.6309L44.13 25.2186L46.158 26.7959L52.0595 19.2082L50.0314 17.6309ZM51.4922 14.6701C50.1054 13.5915 48.1112 13.8174 47.0007 15.1788L48.9917 16.8027C49.2199 16.5229 49.6298 16.4764 49.9148 16.6981L51.4922 14.6701ZM49.9148 16.6981C50.2046 16.9235 50.2568 17.3411 50.0314 17.6309L52.0595 19.2082C53.156 17.7984 52.902 15.7666 51.4922 14.6701L49.9148 16.6981Z" fill="black"/>
<mask id="path-4-inside-1_1923_4817" fill="white">
<path d="M24.1918 34.1156C24.6274 33.5556 25.4345 33.4547 25.9945 33.8902L33.0928 39.4111L29.938 43.4673C29.0669 44.5874 27.4527 44.7892 26.3327 43.918L22.2764 40.7632C21.1563 39.892 20.9545 38.2778 21.8257 37.1578L24.1918 34.1156Z"/>
</mask>
<path d="M24.1918 34.1156C24.6274 33.5556 25.4345 33.4547 25.9945 33.8902L33.0928 39.4111L29.938 43.4673C29.0669 44.5874 27.4527 44.7892 26.3327 43.918L22.2764 40.7632C21.1563 39.892 20.9545 38.2778 21.8257 37.1578L24.1918 34.1156Z" stroke="black" stroke-width="5.13843" mask="url(#path-4-inside-1_1923_4817)"/>
<path d="M29.03 21.6113L43.2267 32.653L37.7058 39.7515C36.3991 41.4315 33.9778 41.7342 32.2977 40.4275L24.1851 34.1178C22.5051 32.8111 22.2024 30.3898 23.5091 28.7097L29.03 21.6113Z" stroke="black" stroke-width="2.56921"/>
<path d="M24.4813 41.75L17.4158 51.3849C15.2747 53.9541 9.19402 59.0927 2 59.0927" stroke="black" stroke-width="2.56921" stroke-linecap="round" stroke-linejoin="round"/>
<path d="M18.0525 42.3916L13.2075 48.8148C11.7394 50.5277 7.56976 53.9534 2.63672 53.9534" stroke="#C5DC7C" stroke-width="2.56921" stroke-linecap="round" stroke-linejoin="round"/>
<path d="M43.75 37.8962L45.677 39.1809C46.3193 39.8232 47.0901 39.6947 47.6039 39.1809C48.1178 38.667 49.1027 37.6821 49.5309 37.2539" stroke="#C5DC7C" stroke-width="2.56921" stroke-linecap="round" stroke-linejoin="round"/>
<path d="M41.1836 41.1084L44.3952 43.6777" stroke="#C5DC7C" stroke-width="2.56921" stroke-linecap="round" stroke-linejoin="round"/>
<circle cx="48.2468" cy="3.21162" r="1.92701" stroke="#C5DC7C" stroke-width="2.56921"/>
<circle cx="55.946" cy="8.34931" r="1.92701" stroke="#C5DC7C" stroke-width="2.56921"/>
</svg>
