<svg width="31" height="31" viewBox="0 0 31 31" fill="none" xmlns="http://www.w3.org/2000/svg">
<rect x="-0.11452" y="0.916115" width="13.0571" height="2.61145" rx="0.652833" transform="matrix(-0.789356 0.613936 0.613936 0.789356 16.553 7.06602)" stroke="black" stroke-width="1.30567"/>
<path d="M13.37 8.16073L11.2143 5.34976C10.8847 4.91999 10.2682 4.84079 9.84068 5.1733V5.1733C9.41522 5.50421 9.33857 6.11737 9.66948 6.54283L12.6776 10.4105" stroke="black" stroke-width="1.30567" stroke-linecap="round"/>
<path d="M10.2909 10.3605C10.5188 10.6398 10.477 11.0511 10.1976 11.279C9.9182 11.5069 9.50697 11.4651 9.27908 11.1857L10.2909 10.3605ZM7.62654 8.12675L7.12064 8.53938L7.62654 8.12675ZM9.27908 11.1857L7.12064 8.53938L8.13244 7.71412L10.2909 10.3605L9.27908 11.1857ZM6.59225 8.96026L9.59136 12.8163L8.56072 13.6179L5.56161 9.76185L6.59225 8.96026ZM5.84991 7.45561C6.55466 6.90747 7.56812 7.02225 8.13244 7.71412L7.12064 8.53938C7.00466 8.39717 6.79635 8.37358 6.6515 8.48624L5.84991 7.45561ZM6.6515 8.48624C6.50424 8.60077 6.47771 8.813 6.59225 8.96026L5.56161 9.76185C5.00437 9.04539 5.13344 8.01285 5.84991 7.45561L6.6515 8.48624Z" fill="black"/>
<mask id="path-4-inside-1_1923_5754" fill="white">
<path d="M19.7211 17.3376C19.4998 17.053 19.0896 17.0017 18.805 17.2231L15.1976 20.0287L16.8009 22.0901C17.2436 22.6593 18.0639 22.7619 18.6331 22.3192L20.6945 20.7159C21.2637 20.2732 21.3663 19.4528 20.9236 18.8836L19.7211 17.3376Z"/>
</mask>
<path d="M19.7211 17.3376C19.4998 17.053 19.0896 17.0017 18.805 17.2231L15.1976 20.0287L16.8009 22.0901C17.2436 22.6593 18.0639 22.7619 18.6331 22.3192L20.6945 20.7159C21.2637 20.2732 21.3663 19.4528 20.9236 18.8836L19.7211 17.3376Z" stroke="black" stroke-width="2.61133" mask="url(#path-4-inside-1_1923_5754)"/>
<path d="M17.2644 10.9825L10.0497 16.5939L12.8554 20.2013C13.5195 21.0551 14.75 21.2089 15.6038 20.5449L19.7266 17.3383C20.5804 16.6742 20.7342 15.4437 20.0701 14.5899L17.2644 10.9825Z" stroke="black" stroke-width="1.30567"/>
<path d="M19.5751 21.2168L23.1658 26.1132C24.2538 27.4189 27.344 30.0303 31 30.0303" stroke="black" stroke-width="1.30567" stroke-linecap="round" stroke-linejoin="round"/>
<path d="M22.8415 21.543L25.3037 24.8072C26.0498 25.6777 28.1688 27.4186 30.6758 27.4186" stroke="#C5DC7C" stroke-width="1.30567" stroke-linecap="round" stroke-linejoin="round"/>
<path d="M9.78125 19.259L8.80197 19.9119C8.47554 20.2383 8.08383 20.173 7.82269 19.9119C7.56155 19.6508 7.06103 19.1502 6.84341 18.9326" stroke="#C5DC7C" stroke-width="1.30567" stroke-linecap="round" stroke-linejoin="round"/>
<path d="M11.0859 20.8916L9.4538 22.1973" stroke="#C5DC7C" stroke-width="1.30567" stroke-linecap="round" stroke-linejoin="round"/>
<circle cx="1.63213" cy="1.63213" r="0.979301" transform="matrix(-1 0 0 1 9.12891 0)" stroke="#C5DC7C" stroke-width="1.30567"/>
<circle cx="1.63213" cy="1.63213" r="0.979301" transform="matrix(-1 0 0 1 5.21875 2.61133)" stroke="#C5DC7C" stroke-width="1.30567"/>
</svg>
