<?xml version="1.0" encoding="UTF-8"?><svg id="a" xmlns="http://www.w3.org/2000/svg" viewBox="0 0 80 80"><defs><style>.b,.c{stroke-width:0px;}.c{fill:#8cc5c9;}</style></defs><path class="c" d="M40.35,64.2v1.56s0,0,0,0c0,2.94-6.07,4.99-14.75,4.99s-14.75-2.05-14.75-4.99v-1.9c2.82,2.02,7.9,3.15,14.75,3.15s11.67-1.08,14.52-3.01c-.64-.57-1.25-1.17-1.82-1.81-2.47,1.43-7.02,2.32-12.71,2.32-8.48,0-14.45-1.96-14.72-4.79.12-.8.93-1.86,1.85-2.49,2.87,1.9,7.84,2.96,14.47,2.96,3.47,0,6.49-.29,8.99-.84-.46-.75-.89-1.51-1.25-2.32-2.2.42-4.81.66-7.74.66-8.68,0-14.75-2.05-14.75-4.99v-1.28c2.89,1.01,6.8,1.55,11.55,1.55,3.67,0,6.82-.33,9.41-.94-.14-.83-.23-1.67-.27-2.52-2.45.61-5.57.97-9.14.97-8.68,0-14.75-2.05-14.75-4.99h0s0,0,0,0v-2.02c.69.45,1.5.86,2.45,1.24,3.28,1.31,7.65,2.03,12.3,2.03,3.36,0,6.57-.38,9.33-1.08.14-.94.33-1.87.6-2.77-2.79.86-6.31,1.35-9.93,1.35-4.28,0-8.42-.67-11.38-1.85-1.59-.64-2.44-1.25-2.87-1.66-.41-.39-.5-.64-.5-.7,0,0,.01-.24.5-.7.43-.4,1.27-1.02,2.87-1.66,2.95-1.18,7.1-1.85,11.38-1.85s8.43.67,11.38,1.85c.27.11.51.21.74.32.44-.72.92-1.41,1.45-2.08-.39-.2-.81-.38-1.26-.56-1.38-.55-2.96-.99-4.66-1.32v-4.39c1.14.81,2.61,1.36,4.25,1.49.04,0,.07,0,.1,0,.64,0,1.19-.5,1.25-1.15.06-.69-.46-1.29-1.14-1.35-2.45-.2-4.45-1.74-4.45-3.44,0,0,0,0,0-.01v-8.25c.69.45,1.5.86,2.45,1.24,3.28,1.31,7.65,2.03,12.3,2.03s9.02-.72,12.3-2.03c.95-.38,1.76-.8,2.45-1.24v2.83c-.04,2.42-4.95,3.9-8.45,4.19-.69.06-1.2.66-1.14,1.35.05.65.6,1.15,1.25,1.15.03,0,.07,0,.1,0,2.44-.2,5.91-.95,8.24-2.55v4.42c0,.23.08.44.19.63.5.17.99.34,1.47.54.49-.17.84-.62.84-1.17v-8.54s0-.03,0-.04c0,0,0-.01,0-.02v-5.44c0-.11-.04-.2-.06-.3.03-.16.06-.32.06-.48,0-.87-.43-1.71-1.29-2.52-.85-.81-2.08-1.53-3.66-2.16-3.28-1.31-7.65-2.03-12.3-2.03s-9.02.72-12.3,2.03c-1.57.63-2.81,1.36-3.66,2.16-.85.81-1.29,1.65-1.29,2.52,0,.16.03.32.06.48-.02.1-.06.19-.06.3v19.35c-1.64-.2-3.37-.31-5.14-.31-4.65,0-9.02.72-12.3,2.03-1.57.63-2.81,1.36-3.66,2.16-.85.81-1.29,1.65-1.29,2.52,0,.16.03.32.06.48-.02.1-.06.19-.06.3v4.68s0,0,0,0h0c0,1.95,1.13,3.56,3.2,4.79v4.57c0,.37.17.69.42.92-1.2,1.14-1.88,2.42-2,3.76h-.03c0,.06.01.11.01.17,0,.08-.01.15-.01.23v5.84h0c0,4.69,6.45,7.49,17.25,7.49s16.96-2.69,17.22-7.21c-.87-.55-1.7-1.17-2.48-1.84ZM32.15,12.76c.43-.41,1.28-1.02,2.87-1.66,2.95-1.18,7.09-1.85,11.38-1.85s8.43.67,11.38,1.85c1.59.64,2.44,1.25,2.87,1.66.41.39.5.64.5.7,0,0-.01.24-.5.7-.43.41-1.27,1.02-2.87,1.66-2.95,1.18-7.09,1.85-11.38,1.85s-8.43-.67-11.38-1.85c-1.59-.64-2.44-1.25-2.87-1.66-.49-.46-.5-.7-.5-.7,0-.06.09-.31.5-.7Z"/><path class="b" d="M54.4,30.16c-10.39,0-18.85,8.26-18.85,18.42s8.46,18.42,18.85,18.42,18.85-8.26,18.85-18.42-8.46-18.42-18.85-18.42ZM54.4,64.51c-9.02,0-16.35-7.14-16.35-15.92s7.33-15.92,16.35-15.92,16.35,7.14,16.35,15.92-7.33,15.92-16.35,15.92Z"/><path class="b" d="M52.45,44.68c0-1.98-1.64-3.59-3.65-3.59s-3.65,1.61-3.65,3.59,1.64,3.59,3.65,3.59,3.65-1.61,3.65-3.59ZM47.65,44.68c0-.6.52-1.09,1.15-1.09s1.15.49,1.15,1.09-.52,1.09-1.15,1.09-1.15-.49-1.15-1.09Z"/><path class="b" d="M59.99,50.46c-2.01,0-3.65,1.61-3.65,3.59s1.64,3.59,3.65,3.59,3.65-1.61,3.65-3.59-1.64-3.59-3.65-3.59ZM59.99,55.14c-.63,0-1.15-.49-1.15-1.09s.52-1.09,1.15-1.09,1.15.49,1.15,1.09-.52,1.09-1.15,1.09Z"/><path class="b" d="M62.61,41.47c-.48-.49-1.27-.5-1.77-.02l-13.71,13.38c-.49.48-.5,1.27-.02,1.77.25.25.57.38.89.38s.63-.12.87-.36l13.71-13.38c.49-.48.5-1.27.02-1.77Z"/><path class="b" d="M23.99,19.24c-.69,0-1.25.56-1.25,1.25v7.34c-1.84.02-3.41.15-5.54.84-.66.21-1.02.92-.8,1.58.17.53.66.86,1.19.86.13,0,.26-.02.39-.06,2.21-.72,3.64-.72,6.01-.72.69,0,1.25-.56,1.25-1.25v-8.59c0-.69-.56-1.25-1.25-1.25Z"/><path class="b" d="M12.42,30.23l-2.4.78c-.66.21-1.02.92-.8,1.58.17.53.66.86,1.19.86.13,0,.26-.02.39-.06l2.4-.78c.66-.21,1.02-.92.8-1.58s-.92-1.02-1.58-.8Z"/></svg>