<svg width="31" height="32" viewBox="0 0 31 32" fill="none" xmlns="http://www.w3.org/2000/svg">
<path d="M15.5 15.8683C15.5 16.0648 15.5942 16.3222 15.9131 16.6306C16.2341 16.9411 16.7373 17.2547 17.4194 17.5338C18.78 18.0904 20.7106 18.4516 22.881 18.4516C25.0513 18.4516 26.9819 18.0904 28.3425 17.5338C29.0246 17.2547 29.5278 16.9411 29.8488 16.6306C30.1677 16.3222 30.2619 16.0648 30.2619 15.8683C30.2619 15.6718 30.1677 15.4144 29.8488 15.106C29.5278 14.7955 29.0246 14.4819 28.3425 14.2028C26.9819 13.6462 25.0513 13.285 22.881 13.285C20.7106 13.285 18.78 13.6462 17.4194 14.2028C16.7373 14.4819 16.2341 14.7955 15.9131 15.106C15.5942 15.4144 15.5 15.6718 15.5 15.8683Z" stroke="#8CC5C9" stroke-width="1.47619"/>
<path d="M15.4998 18.4521C15.4998 20.2865 18.3967 21.4045 22.8808 21.4045C27.3648 21.4045 30.2617 20.2865 30.2617 18.4521" stroke="#8CC5C9" stroke-width="1.47619"/>
<path d="M30.2617 16.2373V18.4516" stroke="#8CC5C9" stroke-width="1.47619" stroke-linecap="round"/>
<path d="M15.5 16.2373V18.4516" stroke="#8CC5C9" stroke-width="1.47619" stroke-linecap="round"/>
<path d="M5.17187 3.32143C5.17187 3.5179 5.26611 3.77535 5.58495 4.08374C5.90597 4.39423 6.40915 4.70785 7.09126 4.98689C8.45186 5.5435 10.3824 5.90476 12.5528 5.90476C14.7232 5.90476 16.6538 5.5435 18.0144 4.98689C18.6965 4.70785 19.1997 4.39423 19.5207 4.08374C19.8395 3.77535 19.9338 3.5179 19.9338 3.32143C19.9338 3.12495 19.8395 2.8675 19.5207 2.55912C19.1997 2.24863 18.6965 1.93501 18.0144 1.65597C16.6538 1.09936 14.7232 0.738095 12.5528 0.738095C10.3824 0.738095 8.45186 1.09936 7.09126 1.65597C6.40915 1.93501 5.90597 2.24863 5.58495 2.55912C5.26611 2.8675 5.17187 3.12495 5.17187 3.32143Z" stroke="#8CC5C9" stroke-width="1.47619"/>
<path d="M19.9336 3.69043V13.2857" stroke="#8CC5C9" stroke-width="1.47619" stroke-linecap="round"/>
<path d="M5.17188 3.69043L5.17187 10.3333" stroke="#8CC5C9" stroke-width="1.47619" stroke-linecap="round"/>
<path d="M28.7891 20.3406C28.7891 22.1522 26.0574 23.6208 21.7772 23.6208C17.497 23.6208 14.0272 22.1522 14.0272 20.3406C14.0272 19.6384 14.5485 18.9877 15.4362 18.4541" stroke="#8CC5C9" stroke-width="1.47619"/>
<path d="M14.0272 22.8828C14.0272 24.7172 16.9241 25.8352 21.4081 25.8352C25.8921 25.8352 28.7891 24.7172 28.7891 22.8828" stroke="#8CC5C9" stroke-width="1.47619"/>
<path d="M28.7891 20.6689V22.8832" stroke="#8CC5C9" stroke-width="1.47619" stroke-linecap="round"/>
<path d="M14.0273 20.6689V22.8832" stroke="#8CC5C9" stroke-width="1.47619" stroke-linecap="round"/>
<path d="M28.6368 23.6191C29.2023 24.1144 29.5234 24.6816 29.5234 25.2844C29.5234 27.2182 26.2189 28.7858 22.1425 28.7858C18.0661 28.7858 14.7615 27.2182 14.7615 25.2844C14.7615 25.0451 14.8122 24.8114 14.9086 24.5855" stroke="#8CC5C9" stroke-width="1.47619"/>
<path d="M14.7615 28.0479C14.7615 29.8822 17.6585 31.0002 22.1425 31.0002C26.6265 31.0002 29.5234 29.8822 29.5234 28.0479" stroke="#8CC5C9" stroke-width="1.47619"/>
<path d="M29.5234 25.834V28.0483" stroke="#8CC5C9" stroke-width="1.47619" stroke-linecap="round"/>
<path d="M14.7617 25.834V28.0483" stroke="#8CC5C9" stroke-width="1.47619" stroke-linecap="round"/>
<circle cx="8.85714" cy="8.85714" r="8.11905" transform="matrix(-1 0 0 1 17.7148 11.0713)" fill="white" stroke="black" stroke-width="1.47619"/>
<circle cx="1.84524" cy="1.84524" r="1.10714" transform="matrix(-1 0 0 1 13.2852 16.2383)" stroke="black" stroke-width="1.47619"/>
<circle cx="1.84524" cy="1.84524" r="1.10714" transform="matrix(-1 0 0 1 8.125 20.666)" stroke="black" stroke-width="1.47619"/>
<path d="M5.48438 16.9756L11.8109 23.3021" stroke="black" stroke-width="1.47619" stroke-linecap="round"/>
<path d="M9.59766 8.85775C8.12147 8.73473 5.16908 8.04584 5.16908 6.27441" stroke="#8CC5C9" stroke-width="1.47619" stroke-linecap="round" stroke-linejoin="round"/>
<path d="M17.3477 11.0707C18.8238 10.9477 19.931 9.96359 19.931 8.85645" stroke="#8CC5C9" stroke-width="1.47619" stroke-linecap="round" stroke-linejoin="round"/>
<path d="M22.8836 6.64355V10.7031C23.9907 10.7031 24.7288 10.7031 25.8359 11.0721" stroke="black" stroke-width="1.47619" stroke-linecap="round" stroke-linejoin="round"/>
<path d="M28.0452 11.8096L29.1523 12.1786" stroke="black" stroke-width="1.47619" stroke-linecap="round" stroke-linejoin="round"/>
</svg>
