<svg width="61" height="63" viewBox="0 0 61 63" fill="none" xmlns="http://www.w3.org/2000/svg">
<path d="M30.5 31.2271C30.5 31.6137 30.3146 32.1203 29.6872 32.7271C29.0555 33.3381 28.0654 33.9552 26.7231 34.5043C24.0458 35.5996 20.247 36.3105 15.9762 36.3105C11.7054 36.3105 7.90654 35.5996 5.22924 34.5043C3.88703 33.9552 2.89689 33.3381 2.26521 32.7271C1.63781 32.1203 1.45238 31.6137 1.45238 31.2271C1.45238 30.8405 1.63781 30.3339 2.26521 29.7271C2.89689 29.1161 3.88703 28.499 5.22924 27.9499C7.90654 26.8547 11.7054 26.1438 15.9762 26.1438C20.247 26.1438 24.0458 26.8547 26.7231 27.9499C28.0654 28.499 29.0555 29.1161 29.6872 29.7271C30.3146 30.3339 30.5 30.8405 30.5 31.2271Z" stroke="#8CC5C9" stroke-width="2.90476"/>
<path d="M30.5007 36.3105C30.5007 39.9201 24.8003 42.1201 15.9769 42.1201C7.15353 42.1201 1.45312 39.9201 1.45312 36.3105" stroke="#8CC5C9" stroke-width="2.90476"/>
<path d="M1.45312 31.9531L1.45313 36.3103" stroke="#8CC5C9" stroke-width="2.90476" stroke-linecap="round"/>
<path d="M30.5 31.9531V36.3103" stroke="#8CC5C9" stroke-width="2.90476" stroke-linecap="round"/>
<path d="M50.8281 6.53669C50.8281 6.92331 50.6427 7.4299 50.0153 8.03672C49.3836 8.64768 48.3935 9.26481 47.0513 9.81389C44.374 10.9092 40.5751 11.62 36.3043 11.62C32.0335 11.62 28.2347 10.9092 25.5574 9.81389C24.2152 9.26481 23.225 8.64768 22.5933 8.03672C21.9659 7.4299 21.7805 6.92331 21.7805 6.53669C21.7805 6.15008 21.9659 5.64349 22.5933 5.03666C23.225 4.4257 24.2152 3.80858 25.5574 3.25949C28.2347 2.16423 32.0335 1.45336 36.3043 1.45336C40.5751 1.45336 44.374 2.16423 47.0513 3.25949C48.3935 3.80858 49.3836 4.4257 50.0153 5.03666C50.6427 5.64349 50.8281 6.15008 50.8281 6.53669Z" stroke="#8CC5C9" stroke-width="2.90476"/>
<path d="M21.7812 7.2627V26.1436" stroke="#8CC5C9" stroke-width="2.90476" stroke-linecap="round"/>
<path d="M50.8281 7.2627V20.3341" stroke="#8CC5C9" stroke-width="2.90476" stroke-linecap="round"/>
<path d="M4.35547 40.0246C4.35547 43.5893 9.73075 46.4792 18.1531 46.4792C26.5754 46.4792 33.4031 43.5893 33.4031 40.0246C33.4031 38.6428 32.3773 37.3625 30.6304 36.3125" stroke="#8CC5C9" stroke-width="2.90476"/>
<path d="M33.4031 45.0264C33.4031 48.6359 27.7027 50.8359 18.8793 50.8359C10.0559 50.8359 4.35547 48.6359 4.35547 45.0264" stroke="#8CC5C9" stroke-width="2.90476"/>
<path d="M4.35547 40.6699V45.0271" stroke="#8CC5C9" stroke-width="2.90476" stroke-linecap="round"/>
<path d="M33.4023 40.6699V45.0271" stroke="#8CC5C9" stroke-width="2.90476" stroke-linecap="round"/>
<path d="M4.65096 46.4775C3.53815 47.4521 2.90625 48.5682 2.90625 49.7544C2.90625 53.5595 9.40878 56.6442 17.4301 56.6442C25.4513 56.6442 31.9539 53.5595 31.9539 49.7544C31.9539 49.2834 31.8542 48.8235 31.6645 48.3791" stroke="#8CC5C9" stroke-width="2.90476"/>
<path d="M31.9539 55.1914C31.9539 58.801 26.2535 61.0009 17.4301 61.0009C8.60665 61.0009 2.90625 58.801 2.90625 55.1914" stroke="#8CC5C9" stroke-width="2.90476"/>
<path d="M2.90625 50.835L2.90625 55.1921" stroke="#8CC5C9" stroke-width="2.90476" stroke-linecap="round"/>
<path d="M31.9531 50.835V55.1921" stroke="#8CC5C9" stroke-width="2.90476" stroke-linecap="round"/>
<circle cx="43.5731" cy="39.2157" r="15.9762" fill="white" stroke="black" stroke-width="2.90476"/>
<circle cx="38.4864" cy="35.5841" r="2.17857" stroke="black" stroke-width="2.90476"/>
<circle cx="48.6466" cy="44.297" r="2.17857" stroke="black" stroke-width="2.90476"/>
<path d="M50.2109 33.4053L37.762 45.8543" stroke="black" stroke-width="2.90476" stroke-linecap="round"/>
<path d="M42.1172 17.43C45.0219 17.1879 50.8315 15.8324 50.8315 12.3467" stroke="#8CC5C9" stroke-width="2.90476" stroke-linecap="round" stroke-linejoin="round"/>
<path d="M26.8672 21.7859C23.9624 21.5438 21.7839 19.6073 21.7839 17.4287" stroke="#8CC5C9" stroke-width="2.90476" stroke-linecap="round" stroke-linejoin="round"/>
<path d="M15.9697 13.0732V21.0613C13.7911 21.0613 12.3387 21.0613 10.1602 21.7875" stroke="black" stroke-width="2.90476" stroke-linecap="round" stroke-linejoin="round"/>
<path d="M5.81138 23.2393L3.63281 23.9654" stroke="black" stroke-width="2.90476" stroke-linecap="round" stroke-linejoin="round"/>
</svg>
