<svg width="64" height="61" viewBox="0 0 64 61" fill="none" xmlns="http://www.w3.org/2000/svg">
<path d="M50.4112 31.8613L58.7478 31.8614C58.0334 36.1558 54.2577 39.2529 49.5498 39.2529C44.8419 39.2529 41.0662 36.1558 40.3518 31.8613L50.4112 31.8613ZM59.6032 31.863C59.6144 31.8638 59.6195 31.8647 59.6193 31.8649C59.619 31.8651 59.6134 31.8647 59.6032 31.863ZM39.4817 31.8649C39.4815 31.8646 39.4865 31.8638 39.4977 31.8629C39.4876 31.8647 39.482 31.8651 39.4817 31.8649Z" stroke="black" stroke-width="3.8125" stroke-linejoin="round"/>
<path d="M56.983 41.7812C59.4728 40.5363 61.1259 38.4576 62.0039 36.8017" stroke="#DBA6DB" stroke-width="3.8125" stroke-linecap="round" stroke-linejoin="round"/>
<path d="M8.4692 43.651C11.11 44.5312 13.7489 44.2303 15.5406 43.6802" stroke="#DBA6DB" stroke-width="3.8125" stroke-linecap="round" stroke-linejoin="round"/>
<path d="M53.6143 43.4845C52.7023 43.8269 51.7533 44.0367 50.7922 44.1159" stroke="#DBA6DB" stroke-width="3.8125" stroke-linecap="round" stroke-linejoin="round"/>
<path d="M30.0145 55.4365L21.678 55.4365C22.3923 51.1421 26.1681 48.0449 30.876 48.0449C35.5839 48.0449 39.3596 51.1421 40.074 55.4365L30.0145 55.4365ZM20.8226 55.4349C20.8114 55.4341 20.8062 55.4332 20.8065 55.433C20.8068 55.4327 20.8124 55.4331 20.8226 55.4349ZM40.944 55.433C40.9443 55.4332 40.9392 55.4341 40.9281 55.4349C40.9382 55.4332 40.9438 55.4328 40.944 55.433Z" stroke="black" stroke-width="3.8125" stroke-linejoin="round"/>
<path d="M13.0597 31.8613L21.3963 31.8614C20.6819 36.1558 16.9061 39.2529 12.1982 39.2529C7.49031 39.2529 3.71461 36.1558 3.00025 31.8613L13.0597 31.8613ZM22.2516 31.863C22.2629 31.8638 22.268 31.8647 22.2677 31.8649C22.2675 31.8651 22.2618 31.8647 22.2516 31.863ZM2.13018 31.8649C2.12993 31.8646 2.13498 31.8638 2.14613 31.8629C2.13601 31.8647 2.13044 31.8651 2.13018 31.8649Z" stroke="black" stroke-width="3.8125" stroke-linejoin="round"/>
<path d="M28.3832 10.2041C22.0204 11.0719 18.2932 17.506 12.1995 17.506H8.46484M33.3829 10.2041C39.8475 11.0719 44.0068 17.506 49.5465 17.506H53.2812" stroke="black" stroke-width="3.8125" stroke-linecap="round"/>
<path d="M2.25 30.5783L12.2092 17.5068L22.1684 30.5783" stroke="black" stroke-width="3.8125" stroke-linecap="round" stroke-linejoin="round"/>
<path d="M39.5938 30.5783L49.5529 17.5068L59.5121 30.5783" stroke="black" stroke-width="3.8125" stroke-linecap="round" stroke-linejoin="round"/>
<path d="M30.8711 46.1387L30.8711 13.7713M30.8711 3.81213L30.8711 6.30193" stroke="black" stroke-width="3.8125" stroke-linecap="round"/>
<path d="M32.7077 10.0374C32.7077 11.0473 31.889 11.8659 30.8792 11.8659C29.8694 11.8659 29.0508 11.0473 29.0508 10.0374C29.0508 9.02761 29.8694 8.20898 30.8792 8.20898C31.889 8.20898 32.7077 9.02761 32.7077 10.0374Z" stroke="#DBA6DB" stroke-width="3.8125"/>
</svg>
