<?xml version="1.0" encoding="UTF-8"?><svg id="a" xmlns="http://www.w3.org/2000/svg" viewBox="0 0 80 80"><defs><style>.b,.c{stroke-width:0px;}.c{fill:#dba6db;}</style></defs><path class="c" d="M73.04,48.53c-.61-.32-1.37-.09-1.69.52-.92,1.73-2.62,3.28-4.81,4.37-.62.31-.87,1.06-.56,1.68.22.44.66.69,1.12.69.19,0,.38-.04.56-.13,2.65-1.32,4.74-3.25,5.9-5.44.32-.61.09-1.37-.52-1.69Z"/><path class="c" d="M22.79,54.69c-1.27.33-4.62.99-8.22-.02-.67-.19-1.36.2-1.54.86-.19.66.2,1.36.86,1.54,1.67.47,3.29.64,4.73.64,2.16,0,3.91-.37,4.8-.6.67-.17,1.07-.86.89-1.52-.17-.67-.86-1.07-1.52-.89Z"/><path class="c" d="M62.17,54.8c-.95.14-1.7.15-2.99.04-.7-.05-1.29.45-1.36,1.13-.06.69.45,1.29,1.13,1.36.66.06,1.22.09,1.73.09.64,0,1.21-.05,1.86-.14.68-.1,1.15-.74,1.05-1.42-.1-.68-.74-1.14-1.42-1.05Z"/><path class="c" d="M38.93,14.83c-2.29,0-4.16,1.86-4.16,4.16s1.87,4.16,4.16,4.16,4.16-1.87,4.16-4.16-1.86-4.16-4.16-4.16ZM38.93,20.71c-.95,0-1.72-.77-1.72-1.72s.77-1.73,1.72-1.73,1.73.78,1.73,1.73-.78,1.72-1.73,1.72Z"/><path class="b" d="M40.46,56.98h-.28v-31.37s0-.05-.01-.08c-.4.08-.82.12-1.24.12s-.84-.04-1.24-.12c-.01.03-.01.05-.01.08v31.37h-.28c-7.62,0-14.03,5.7-14.91,13.26-.09.76.15,1.52.66,2.09.52.59,1.26.92,2.04.92h27.48c.78,0,1.52-.33,2.04-.92.51-.57.75-1.33.67-2.09-.89-7.56-7.3-13.26-14.92-13.26ZM52.84,70.67s-.08.08-.17.08h-27.48c-.09,0-.15-.05-.17-.08-.04-.04-.06-.09-.05-.14.74-6.3,6.08-11.05,12.43-11.05h3.06c6.35,0,11.7,4.75,12.43,11.05.01.05-.01.1-.05.14Z"/><path class="b" d="M30.58,41.67c0-.48-.09-.95-.26-1.4,0,0,0,0,0,0,0-.03-.02-.05-.03-.07-.13-.36-.32-.69-.55-1l-8.71-11.39c2.79-.59,5.14-2.21,7.43-3.8,1.37-.94,2.78-1.91,4.26-2.64-.29-.74-.45-1.54-.45-2.38,0-.05,0-.1.01-.15-.06.01-.12.03-.18.06-1.84.83-3.47,1.96-5.06,3.06-2.65,1.83-5.16,3.57-8.16,3.57h-3.98c-.69,0-1.25.56-1.25,1.25s.56,1.25,1.25,1.25h1.23l-8.54,11.17c-.23.31-.42.64-.55,1,0,0,0,0,0,0,0,.02-.02.04-.03.06,0,0,0,0,0,0-.17.44-.26.92-.26,1.4,0,6.3,5.12,11.41,11.42,11.41h1c6.29,0,11.41-5.11,11.41-11.41ZM18.67,28.83l8.13,10.64H10.54l8.13-10.64ZM19.17,50.58h-1c-4.82,0-8.76-3.83-8.91-8.61,0,0,0,0,0,0h18.81s0,0,0,0c-.15,4.78-4.09,8.61-8.9,8.61Z"/><path class="b" d="M71.77,40.53c-.01-.1-.04-.21-.08-.3-.14-.37-.33-.72-.57-1.03l-8.54-11.17h.12c.69,0,1.25-.56,1.25-1.25s-.56-1.25-1.25-1.25h-3.99c-2.62,0-5.08-1.67-7.68-3.43-1.7-1.14-3.45-2.33-5.41-3.19-.01,0-.02-.01-.03-.01v.09c0,.86-.17,1.69-.47,2.44,1.57.76,3.06,1.77,4.51,2.74,2.48,1.68,5.04,3.41,7.94,3.78l-8.6,11.25c-.23.3-.41.63-.54.98-.02.04-.03.08-.05.12-.16.44-.25.9-.25,1.37,0,6.3,5.12,11.41,11.41,11.41h1c6.29,0,11.41-5.11,11.41-11.41,0-.39-.07-.77-.18-1.14ZM60.04,28.83l8.13,10.64h-16.26l8.13-10.64ZM60.54,50.58h-1c-4.81,0-8.75-3.83-8.9-8.61,0,0,0,0,0,0h18.8s0,0,0,0c-.15,4.78-4.08,8.61-8.9,8.61Z"/><path class="b" d="M38.93,12.33c.42,0,.84.04,1.24.11.01-.03.01-.07.01-.11v-4.33c0-.69-.56-1.25-1.25-1.25s-1.25.56-1.25,1.25v4.33s0,.08.01.11c.4-.07.82-.11,1.24-.11Z"/></svg>