<svg width="33" height="31" viewBox="0 0 33 31" fill="none" xmlns="http://www.w3.org/2000/svg">
<path d="M6.88502 16.1919L2.64839 16.1919C3.01144 18.3743 4.93026 19.9482 7.32281 19.9482C9.71535 19.9482 11.6341 18.3743 11.9972 16.1919L6.88502 16.1919ZM12.4393 16.1936C12.4395 16.1935 12.4369 16.1931 12.4312 16.1927C12.4364 16.1936 12.4392 16.1938 12.4393 16.1936ZM2.2137 16.1927C2.20799 16.1931 2.20539 16.1935 2.20552 16.1937C2.20565 16.1938 2.20851 16.1936 2.2137 16.1927Z" stroke="black" stroke-width="1.9375" stroke-linejoin="round"/>
<path d="M3.54771 21.2334C2.28241 20.6007 1.44229 19.5443 0.996094 18.7028" stroke="#DBA6DB" stroke-width="1.9375" stroke-linecap="round" stroke-linejoin="round"/>
<path d="M28.2027 22.1831C26.8606 22.6305 25.5196 22.4775 24.609 22.198" stroke="#DBA6DB" stroke-width="1.9375" stroke-linecap="round" stroke-linejoin="round"/>
<path d="M5.25824 22.0985C5.72172 22.2725 6.20401 22.3791 6.69243 22.4193" stroke="#DBA6DB" stroke-width="1.9375" stroke-linecap="round" stroke-linejoin="round"/>
<path d="M17.2517 28.1724L21.4883 28.1724C21.1253 25.99 19.2065 24.416 16.8139 24.416C14.4214 24.416 12.5026 25.99 12.1395 28.1724L17.2517 28.1724ZM11.6974 28.1706C11.6972 28.1707 11.6998 28.1712 11.7055 28.1716C11.7003 28.1707 11.6975 28.1705 11.6974 28.1706ZM21.923 28.1716C21.9287 28.1712 21.9313 28.1707 21.9312 28.1706C21.9311 28.1705 21.9282 28.1707 21.923 28.1716Z" stroke="black" stroke-width="1.9375" stroke-linejoin="round"/>
<path d="M25.8694 16.1919L21.6328 16.1919C21.9958 18.3743 23.9146 19.9482 26.3072 19.9482C28.6997 19.9482 30.6185 18.3743 30.9816 16.1919L25.8694 16.1919ZM31.4237 16.1936C31.4239 16.1935 31.4213 16.1931 31.4156 16.1927C31.4208 16.1936 31.4236 16.1938 31.4237 16.1936ZM21.1981 16.1927C21.1924 16.1931 21.1898 16.1935 21.1899 16.1937C21.19 16.1938 21.1929 16.1936 21.1981 16.1927Z" stroke="black" stroke-width="1.9375" stroke-linejoin="round"/>
<path d="M18.0807 5.18555C21.3142 5.62657 23.2084 8.89636 26.3052 8.89636H28.2031M15.5398 5.18555C12.2546 5.62657 10.1408 8.89636 7.32557 8.89636H5.42761" stroke="black" stroke-width="1.9375" stroke-linecap="round"/>
<path d="M31.3633 15.5403L26.3021 8.89746L21.2408 15.5403" stroke="black" stroke-width="1.9375" stroke-linecap="round" stroke-linejoin="round"/>
<path d="M12.3828 15.5403L7.32159 8.89746L2.26036 15.5403" stroke="black" stroke-width="1.9375" stroke-linecap="round" stroke-linejoin="round"/>
<path d="M16.8164 23.4473L16.8164 6.99828M16.8164 1.93706L16.8164 3.20236" stroke="black" stroke-width="1.9375" stroke-linecap="round"/>
<path d="M15.8838 5.10108C15.8838 5.61427 16.2998 6.03029 16.813 6.03029C17.3262 6.03029 17.7422 5.61427 17.7422 5.10108C17.7422 4.5879 17.3262 4.17188 16.813 4.17188C16.2998 4.17188 15.8838 4.5879 15.8838 5.10108Z" stroke="#DBA6DB" stroke-width="1.9375"/>
</svg>
