<svg width="31" height="32" viewBox="0 0 31 32" fill="none" xmlns="http://www.w3.org/2000/svg">
<path d="M21.9106 19.4915C19.7512 19.599 17.6522 18.3816 16.7383 16.2819C15.5591 13.5727 16.7995 10.4206 19.5087 9.24146C22.2178 8.06232 25.3699 9.30267 26.5491 12.0118C27.448 14.0773 26.9407 16.4002 25.4484 17.91" stroke="black" stroke-width="1.15269" stroke-linecap="round"/>
<path d="M19.5241 13.3538C19.8826 14.1775 20.8409 14.5546 21.6646 14.1961C22.4883 13.8376 22.8654 12.8792 22.5069 12.0555C22.1484 11.2319 21.1901 10.8547 20.3664 11.2132C19.5427 11.5717 19.1656 12.5301 19.5241 13.3538Z" stroke="black" stroke-width="1.15269"/>
<path d="M25.3828 18.0117L25.8852 19.1659L25.0195 19.5427L28.6616 27.9107L28.2983 29.4417L26.3532 28.9154L26.6791 28.0872L26.1767 26.9329L24.7714 26.8582L25.0973 26.0299L24.269 25.704L25.172 24.6245L24.6697 23.4703L23.5155 23.9727L23.0131 22.8185L23.665 21.1619L23.2882 20.2962L22.4225 20.673L21.9202 19.5188" stroke="black" stroke-width="1.15269" stroke-linecap="round" stroke-linejoin="round"/>
<path d="M3.6181 22.1063L2.344 27.1143C2.26552 27.4228 2.45197 27.7365 2.76045 27.8149L10.7974 29.8597C11.1059 29.9381 11.4196 29.7517 11.4981 29.4432L12.7722 24.4352C12.8164 24.2615 12.7772 24.0771 12.6662 23.9363L9.43156 19.8331C9.27018 19.6284 8.99148 19.5575 8.75188 19.6602L3.94958 21.7187C3.78482 21.7893 3.6623 21.9326 3.6181 22.1063Z" stroke="#DFA68E" stroke-width="1.15269"/>
<path d="M9.08064 23.6884L7.20637 23.2116C6.89789 23.1331 6.5842 23.3195 6.50572 23.628L6.02888 25.5023C5.9504 25.8108 6.13685 26.1245 6.44532 26.2029L8.31959 26.6798C8.62807 26.7583 8.94177 26.5718 9.02025 26.2633L9.49709 24.3891C9.57557 24.0806 9.38912 23.7669 9.08064 23.6884Z" stroke="#DFA68E" stroke-width="1.15269"/>
<mask id="path-6-inside-1_1923_5652" fill="white">
<path d="M6.61962 19.4179C6.6981 19.1094 6.51165 18.7958 6.20317 18.7173L5.26603 18.4789C4.95755 18.4004 4.64386 18.5868 4.56538 18.8953L4.01065 21.0757L5.50633 21.4563C5.81481 21.5347 6.12851 21.3483 6.20699 21.0398L6.61962 19.4179Z"/>
</mask>
<path d="M6.61962 19.4179C6.6981 19.1094 6.51165 18.7958 6.20317 18.7173L5.26603 18.4789C4.95755 18.4004 4.64386 18.5868 4.56538 18.8953L4.01065 21.0757L5.50633 21.4563C5.81481 21.5347 6.12851 21.3483 6.20699 21.0398L6.61962 19.4179Z" stroke="#DFA68E" stroke-width="2.11967" mask="url(#path-6-inside-1_1923_5652)"/>
<path fill-rule="evenodd" clip-rule="evenodd" d="M16.9754 3.42194C19.3927 2.36983 22.2052 3.47655 23.2573 5.89387C23.6312 6.75289 23.7323 7.6601 23.5997 8.52097L23.5947 8.55285C23.9692 8.68383 24.3304 8.8521 24.6723 9.05532C24.6981 8.93658 24.7204 8.81692 24.7389 8.69652C24.9038 7.62662 24.7776 6.4985 24.3142 5.43386C23.0081 2.43282 19.5164 1.05886 16.5154 2.36502C13.5143 3.67119 12.1404 7.16286 13.4465 10.1639C13.9617 11.3476 14.8169 12.2781 15.8478 12.8909C15.9324 12.5023 16.0558 12.1233 16.2156 11.7601C15.4847 11.2694 14.8808 10.571 14.5034 9.70389C13.4513 7.28657 14.5581 4.47405 16.9754 3.42194ZM20.7854 12.1758C19.6165 12.6846 18.3551 12.6885 17.2451 12.2836C17.0946 12.6384 16.987 13.0112 16.9255 13.3934C18.2851 13.8689 19.8206 13.8529 21.2454 13.2327C21.3032 13.2076 21.3926 13.171 21.5022 13.1262L21.5023 13.1261C21.5964 13.0877 21.7054 13.0431 21.822 12.9944C21.8724 12.9734 21.926 12.9509 21.9803 12.9277C22.0298 12.7163 22.014 12.4941 21.9323 12.3063C21.8545 12.1275 21.713 11.9712 21.5369 11.8635C21.4878 11.8846 21.4346 11.9071 21.3781 11.9306C21.2841 11.9699 21.1824 12.0115 21.088 12.0502L21.0879 12.0502C20.9628 12.1015 20.8505 12.1475 20.7854 12.1758Z" fill="#DFA68E"/>
<path d="M12.1641 10.5615C11.0114 11.1379 9.85869 12.8669 10.435 14.5959C11.0114 16.325 11.0114 18.054 9.28235 19.4948" stroke="#DFA68E" stroke-width="1.15269" stroke-linecap="round" stroke-linejoin="round"/>
<path d="M14.4727 25.5459L13.3031 29.72" stroke="black" stroke-width="1.15269" stroke-linecap="round"/>
<path d="M15.6211 29.019L15.0275 31.1758" stroke="black" stroke-width="1.15269" stroke-linecap="round"/>
<circle cx="1.44086" cy="1.44086" r="0.864515" transform="matrix(-1 0 0 1 14.4727 8.64551)" stroke="#DFA68E" stroke-width="1.15269"/>
</svg>
