<?xml version="1.0" encoding="UTF-8"?><svg id="a" xmlns="http://www.w3.org/2000/svg" viewBox="0 0 80 80"><defs><style>.b,.c{stroke-width:0px;}.c{fill:#dfa68e;}</style></defs><path class="b" d="M44.65,72.31c-.57,0-1.08-.39-1.22-.97l-2.2-9.62c-.15-.67.27-1.34.94-1.5.68-.16,1.34.27,1.5.94l2.2,9.62c.15.67-.27,1.34-.94,1.5-.09.02-.19.03-.28.03Z"/><path class="b" d="M40.33,73.25c-.57,0-1.08-.39-1.22-.97l-1.19-5.21c-.15-.67.27-1.34.94-1.5.68-.15,1.34.27,1.5.94l1.19,5.21c.15.67-.27,1.34-.94,1.5-.09.02-.19.03-.28.03Z"/><path class="c" d="M71.01,63.94l-2.88-11.42c-.19-.77-.74-1.41-1.46-1.72l-10.82-4.69c-.24-.11-.49-.17-.74-.19-4.59-2.8-5.9-6.37-3.88-10.65.85-1.78.88-3.72.1-5.6-.96-2.3-3.17-4.43-5.79-5.65.32-1.15.5-2.36.5-3.62,0-7.52-6.06-13.65-13.51-13.65s-13.52,6.13-13.52,13.65c0,.8.07,1.6.21,2.37.03.16.09.31.17.44.66-.41,1.36-.76,2.09-1.05.06-.02.11-.04.17-.06-.09-.55-.14-1.12-.14-1.7,0-6.15,4.95-11.15,11.02-11.15s11.01,5,11.01,11.15c0,3.87-1.95,7.28-4.91,9.28-.69.47-1.43.86-2.22,1.16-1.18.46-2.45.71-3.78.72h-.1c-.81,0-1.62-.09-2.4-.26-1.33-.31-2.6-.86-3.75-1.64-.07-.05-.15-.09-.23-.12-.27.23-.49.53-.64.88-.22.51-.25,1.06-.12,1.56,1.1.71,2.28,1.24,3.52,1.57.96.28,1.96.45,2.98.48.21.02.43.03.64.03,1.57,0,3.08-.27,4.48-.78.82-.29,1.61-.66,2.35-1.11,2.28-1.36,4.13-3.37,5.3-5.79,1.98.97,3.66,2.58,4.36,4.25.51,1.23.49,2.43-.05,3.57-2.39,5.05-1.1,9.62,3.6,13.03l-7.02,9c-.48.62-.66,1.45-.46,2.21l2.87,11.41c.16.67.58,1.23,1.17,1.58.4.24.84.36,1.29.36.21,0,.43-.03.64-.08l18.11-4.66c1.35-.35,2.18-1.75,1.84-3.11ZM50.38,69.24l-2.86-11.47,7.34-9.37,10.82,4.69s.03.02.03.04l2.83,11.5-18.16,4.61Z"/><path class="c" d="M61.63,55.99c-.17-.67-.58-1.23-1.17-1.58-.58-.35-1.27-.45-1.93-.28l-4.22,1.09c-1.36.35-2.18,1.75-1.84,3.11l1.08,4.27c.17.67.58,1.23,1.17,1.58.4.24.84.36,1.29.36.21,0,.42-.03.64-.08l4.22-1.09c1.36-.35,2.18-1.75,1.84-3.11l-1.07-4.27ZM55.96,62l-1.08-4.27s.01-.08.04-.08l4.28-1.04,1.04,4.35-4.28,1.04Z"/><path class="b" d="M38.51,40.05c-2.1,4.86-6.85,8.05-12.01,8.14l-.8,1.87c-.13.3-.38.54-.69.66-.31.13-.66.12-.96-.01l-.8-.36-.15.35,1.28,3.3c.12.3.12.64-.01.94l-1.13,2.63c-.14.31-.39.55-.69.67-.32.12-.66.12-.97-.02l-1.44-.63-.34.77,1.55,1.87c.26.31.35.72.25,1.11-.1.38-.38.7-.75.85l-.71.28.28.73c.15.38.1.8-.11,1.13-.22.34-.59.55-.99.57l-2.39.13-.62,1.45.55,1.41c.13.33.11.7-.05,1.02-.16.31-.44.55-.79.64l-4.38,1.2c-.11.03-.22.04-.33.04-.22,0-.44-.06-.64-.17-.29-.18-.5-.46-.58-.79l-.81-3.49c-.07-.26-.04-.53.06-.78l7.72-17.93-.82-.36c-.62-.28-.91-1.01-.64-1.64l.81-1.88c-3.42-3.97-4.36-9.65-2.31-14.42,1.11-2.58,2.95-4.7,5.29-6.12.66-.41,1.36-.76,2.09-1.05.06-.02.11-.04.17-.06,3.24-1.23,6.78-1.14,9.97.27,3.33,1.46,5.77,4.15,7.01,7.31-.69.47-1.43.86-2.22,1.16-.99-2.68-3.01-4.96-5.8-6.18-2.63-1.16-5.55-1.22-8.22-.17-2.7,1.06-4.83,3.13-5.99,5.83-1.74,4.04-.76,9.1,2.37,12.3.36.37.46.91.26,1.37l-.64,1.49.81.36c.63.28.92,1.01.65,1.64l-8.05,18.69.43,1.83,1.8-.5-.24-.59c-.12-.31-.11-.65.02-.95l1.13-2.63c.19-.43.61-.73,1.08-.75l1.45-.08-.11-.28c-.25-.64.06-1.36.7-1.61l.27-.11-.94-1.14c-.3-.36-.37-.86-.18-1.29l1.13-2.63c.13-.3.38-.55.69-.67.31-.12.65-.11.96.02l1.45.64.43-1-1.28-3.3c-.12-.31-.12-.65,0-.95l.85-1.97c.13-.31.38-.55.69-.67.31-.12.66-.12.96.02l.8.35.63-1.47c.21-.48.7-.78,1.21-.76,4.49.23,8.67-2.43,10.47-6.62.81-1.89,1.05-3.88.8-5.78.82-.29,1.61-.66,2.35-1.11.5,2.57.26,5.31-.85,7.88Z"/><path class="b" d="M25.51,30.42c-.22.51-.25,1.06-.12,1.56.16.73.65,1.36,1.38,1.68.58.26,1.23.27,1.83.04.11-.04.21-.09.31-.15.96.28,1.96.45,2.98.48-.55.9-1.38,1.6-2.38,1.99-.58.23-1.18.34-1.79.34-.66,0-1.33-.14-1.96-.41-2.48-1.09-3.62-4.02-2.54-6.52.52-1.22,1.49-2.16,2.72-2.64,1.22-.48,2.55-.45,3.75.07,1.89.83,3.01,2.74,2.94,4.7h-.1c-.81,0-1.62-.09-2.4-.26-.03-.92-.56-1.77-1.44-2.15-.31-.14-.64-.2-.96-.2-.3,0-.59.05-.87.16-.26.1-.5.25-.71.43-.27.23-.49.53-.64.88Z"/></svg>