<svg width="61" height="63" viewBox="0 0 61 63" fill="none" xmlns="http://www.w3.org/2000/svg">
<path d="M17.8832 38.3531C22.1324 38.5646 26.2627 36.169 28.061 32.0373C30.3812 26.7063 27.9405 20.5038 22.6096 18.1836C17.2786 15.8633 11.0761 18.304 8.75587 23.635C6.98695 27.6992 7.98524 32.2701 10.9218 35.2409" stroke="black" stroke-width="2.26819" stroke-linecap="round"/>
<path d="M22.5857 26.2767C21.8802 27.8975 19.9944 28.6395 18.3736 27.9341C16.7528 27.2287 16.0108 25.3429 16.7162 23.7221C17.4217 22.1013 19.3074 21.3593 20.9282 22.0647C22.549 22.7701 23.2911 24.6559 22.5857 26.2767Z" stroke="black" stroke-width="2.26819"/>
<path d="M11.0508 35.4414L10.0623 37.7126L11.7657 38.454L4.59898 54.9201L5.31386 57.9327L9.14136 56.8971L8.50002 55.2673L9.48853 52.9961L12.254 52.849L11.6126 51.2191L13.2425 50.5778L11.4655 48.4537L12.4541 46.1825L14.7252 47.171L15.7137 44.8998L14.4311 41.6401L15.1724 39.9367L16.8758 40.6781L17.8644 38.4069" stroke="black" stroke-width="2.26819" stroke-linecap="round" stroke-linejoin="round"/>
<path d="M53.8824 43.5001L56.3895 53.3545C56.5439 53.9615 56.1771 54.5788 55.57 54.7332L39.7553 58.7567C39.1483 58.9111 38.5311 58.5442 38.3766 57.9372L35.8695 48.0828C35.7826 47.7409 35.8596 47.3781 36.078 47.1011L42.443 39.027C42.7606 38.6242 43.309 38.4847 43.7804 38.6868L53.2301 42.7373C53.5543 42.8763 53.7954 43.1582 53.8824 43.5001Z" stroke="#DFA68E" stroke-width="2.26819"/>
<path d="M43.1301 46.6131L46.8182 45.6748C47.4252 45.5204 48.0425 45.8872 48.1969 46.4942L49.1352 50.1823C49.2896 50.7893 48.9228 51.4066 48.3158 51.561L44.6277 52.4993C44.0207 52.6538 43.4034 52.2869 43.249 51.6799L42.3107 47.9918C42.1562 47.3848 42.5231 46.7675 43.1301 46.6131Z" stroke="#DFA68E" stroke-width="2.26819"/>
<mask id="path-6-inside-1_1923_4811" fill="white">
<path d="M47.9788 38.2085C47.8244 37.6015 48.1913 36.9842 48.7983 36.8298L50.6423 36.3606C51.2493 36.2062 51.8666 36.5731 52.021 37.1801L53.1126 41.4706L50.1695 42.2194C49.5625 42.3738 48.9452 42.0069 48.7908 41.3999L47.9788 38.2085Z"/>
</mask>
<path d="M47.9788 38.2085C47.8244 37.6015 48.1913 36.9842 48.7983 36.8298L50.6423 36.3606C51.2493 36.2062 51.8666 36.5731 52.021 37.1801L53.1126 41.4706L50.1695 42.2194C49.5625 42.3738 48.9452 42.0069 48.7908 41.3999L47.9788 38.2085Z" stroke="#DFA68E" stroke-width="4.17097" mask="url(#path-6-inside-1_1923_4811)"/>
<path fill-rule="evenodd" clip-rule="evenodd" d="M27.5919 6.73349C22.8353 4.66322 17.301 6.84096 15.2307 11.5976C14.495 13.2879 14.296 15.0731 14.557 16.7671L14.5666 16.828C13.8295 17.0856 13.1187 17.4165 12.4459 17.8162C12.3952 17.5833 12.3516 17.3486 12.3153 17.1125C11.9908 15.0072 12.2391 12.7874 13.1509 10.6924C15.7211 4.78716 22.5919 2.08356 28.4971 4.65375C34.4024 7.22395 37.106 14.0947 34.5358 19.9999C33.5216 22.3301 31.8379 24.1617 29.8081 25.3675C29.6417 24.6028 29.3991 23.8571 29.0848 23.1423C30.524 22.1767 31.7131 20.8018 32.456 19.0947C34.5263 14.3381 32.3486 8.80377 27.5919 6.73349ZM20.0948 23.9589C22.3941 24.9596 24.8752 24.9677 27.0588 24.1718C27.3547 24.8701 27.5663 25.6037 27.6872 26.3558C25.0125 27.2903 21.9923 27.2585 19.1896 26.0386C19.076 25.9892 18.9006 25.9174 18.6856 25.8294L18.6843 25.8289L18.6842 25.8289C18.499 25.7531 18.2845 25.6654 18.055 25.5696C17.9566 25.5286 17.852 25.4847 17.7459 25.4394C17.6483 25.0231 17.6793 24.5856 17.8402 24.2159C17.9933 23.8642 18.2713 23.5568 18.6174 23.3449C18.7137 23.3862 18.8179 23.4303 18.9284 23.4764C19.1134 23.5536 19.3133 23.6354 19.4989 23.7115L19.4993 23.7116L19.4995 23.7117C19.7457 23.8126 19.9667 23.9031 20.0948 23.9589Z" fill="#DFA68E"/>
<path d="M37.0625 20.7812C39.3307 21.9153 41.5989 25.3176 40.4648 28.7199C39.3307 32.1222 39.3307 35.5245 42.733 38.3597" stroke="#DFA68E" stroke-width="2.26819" stroke-linecap="round" stroke-linejoin="round"/>
<path d="M32.5234 50.2666L34.8249 58.4802" stroke="black" stroke-width="2.26819" stroke-linecap="round"/>
<path d="M30.2599 57.1009L31.428 61.3451" stroke="black" stroke-width="2.26819" stroke-linecap="round"/>
<circle cx="35.3587" cy="19.847" r="1.70114" stroke="#DFA68E" stroke-width="2.26819"/>
</svg>
