<svg width="31" height="31" viewBox="0 0 31 31" fill="none" xmlns="http://www.w3.org/2000/svg">
<path d="M26.0292 2.19448C27.2034 2.31847 29.356 2.94517 29.1293 5.89129C28.9325 8.4496 25.9873 14.381 23.8625 18.3719C22.9434 20.098 20.5171 20.0528 19.6527 18.2986C17.6866 14.3087 14.9507 8.43399 14.5594 5.89129C14.1069 2.95103 16.1897 2.32098 17.3492 2.19523" stroke="black" stroke-width="1.24"/>
<rect x="-0.62" y="0.62" width="2.48" height="1.86" rx="0.93" transform="matrix(-1 0 0 1 25.4084 0.621094)" stroke="black" stroke-width="1.24"/>
<rect x="-0.62" y="0.62" width="2.48" height="1.86" rx="0.93" transform="matrix(-1 0 0 1 19.2092 0.621094)" stroke="black" stroke-width="1.24"/>
<circle cx="1.55" cy="1.55" r="0.93" transform="matrix(-1 0 0 1 10.5273 14.2607)" stroke="#90C2E7" stroke-width="1.24"/>
<circle cx="3.41" cy="3.41" r="2.79" transform="matrix(-1 0 0 1 12.3867 12.4014)" stroke="black" stroke-width="1.24"/>
<path d="M21.6875 20.1511C21.6875 23.8711 20.5939 29.7611 15.1775 29.7611C8.6675 29.7611 10.5275 21.7011 13.9375 21.7011C16.7275 21.7011 18.2775 25.4211 15.4875 26.9711C12.6975 28.5211 6.8075 23.8711 8.3575 18.9111" stroke="black" stroke-width="1.24" stroke-linecap="round" stroke-linejoin="round"/>
<path d="M6.20238 11.3472L5.48047 9.30078" stroke="#90C2E7" stroke-width="1.24" stroke-linecap="round" stroke-linejoin="round"/>
<path d="M4.66333 12.5504L2.87505 11.2089" stroke="#90C2E7" stroke-width="1.24" stroke-linecap="round" stroke-linejoin="round"/>
<path d="M3.9535 14.2789L1.82031 13.8809" stroke="#90C2E7" stroke-width="1.24" stroke-linecap="round" stroke-linejoin="round"/>
</svg>
