<?xml version="1.0" encoding="UTF-8"?><svg id="a" xmlns="http://www.w3.org/2000/svg" viewBox="0 0 80 80"><defs><style>.b,.c{stroke-width:0px;}.c{fill:#90c2e7;}</style></defs><path class="b" d="M63.02,40.7c0-4.14-3.49-7.51-7.79-7.51s-7.78,3.37-7.78,7.51,3.49,7.51,7.78,7.51c.1,0,.21-.01.31-.02,1.52,4.91-.72,9.48-3.7,12.53-.37-1.65-1.07-3.24-2.04-4.56-1.65-2.26-3.84-3.5-6.19-3.5-3.81,0-7.22,2.59-8.11,6.16-.81,3.24.68,6.31,3.9,8.02,2.62,1.39,6.33.96,9.87-1.02-.28.9-.77,1.81-1.58,2.62-1.54,1.53-3.89,2.31-6.98,2.31-4.21,0-14-1.98-14-20.32,0-.02-.01-.04-.01-.06,1.98-.42,3.7-1.69,4.64-3.52,4.99-9.7,11.13-22.47,12.05-28.22.44-2.71,0-4.95-1.29-6.63-1.43-1.87-3.6-2.65-5.43-2.97-.46-1.32-1.73-2.28-3.24-2.28h-1.45c-1.89,0-3.43,1.5-3.43,3.34s1.54,3.34,3.43,3.34h1.45c1.35,0,2.51-.77,3.07-1.88,1.29.26,2.71.81,3.61,1.98.86,1.12,1.13,2.7.8,4.71-.68,4.23-4.87,13.99-11.81,27.47-.74,1.43-2.16,2.31-3.8,2.33h-.08c-1.6,0-3.01-.82-3.78-2.21-7.52-13.53-11.84-23.29-12.18-27.5-.37-4.61,2.37-6.27,5.12-6.8.56,1.11,1.72,1.89,3.08,1.89h1.45c1.89,0,3.43-1.5,3.43-3.34s-1.54-3.34-3.43-3.34h-1.45c-1.51,0-2.78.96-3.23,2.27-5.09.86-7.87,4.36-7.45,9.51.47,5.84,7.05,18.73,12.49,28.51,1.05,1.89,2.84,3.11,4.93,3.41,0,5.38,1.21,22.79,16.5,22.79,8.14,0,11.21-4.76,11.41-9.39.03-.02.06-.05.08-.07,4.1-3.45,7.71-9.45,5.79-16.08,2.93-1.08,5.02-3.81,5.02-7.01ZM33.45,10.92h-1.45c-.51,0-.93-.38-.93-.84s.42-.84.93-.84h1.45c.51,0,.93.38.93.84s-.42.84-.93.84ZM17.48,9.25h1.45c.51,0,.93.38.93.84s-.42.84-.93.84h-1.45c-.51,0-.93-.38-.93-.84s.42-.84.93-.84ZM40.58,64.64c-2.21-1.18-3.18-3.08-2.64-5.21.53-2.12,2.65-4.27,5.69-4.27,3.23,0,5.7,3.81,5.99,7.49-3.24,2.33-6.83,3.16-9.03,1.99ZM55.23,45.71c-2.91,0-5.28-2.25-5.28-5.01s2.37-5.01,5.28-5.01,5.29,2.25,5.29,5.01-2.37,5.01-5.29,5.01Z"/><path class="c" d="M55.24,37.36c-1.89,0-3.43,1.5-3.43,3.34s1.54,3.34,3.43,3.34,3.43-1.5,3.43-3.34-1.54-3.34-3.43-3.34ZM55.24,41.53c-.51,0-.93-.38-.93-.84s.42-.84.93-.84.93.38.93.84-.42.84-.93.84Z"/><path class="c" d="M64.03,25c-.6-.34-1.36-.12-1.7.48l-2.73,4.88c-.34.6-.12,1.36.48,1.7.19.11.4.16.61.16.44,0,.86-.23,1.09-.64l2.73-4.88c.34-.6.12-1.36-.48-1.7Z"/><path class="c" d="M65.62,34.72l4.65-3.34c.56-.4.69-1.18.29-1.74-.4-.56-1.18-.69-1.74-.29l-4.65,3.34c-.56.4-.69,1.18-.29,1.74.24.34.63.52,1.02.52.25,0,.51-.08.73-.24Z"/><path class="c" d="M73.21,36.05c-.17-.67-.86-1.07-1.52-.9l-5.98,1.54c-.67.17-1.07.85-.9,1.52.15.56.65.94,1.21.94.1,0,.21-.01.31-.04l5.98-1.54c.67-.17,1.07-.85.9-1.52Z"/></svg>