<svg width="61" height="61" viewBox="0 0 61 61" fill="none" xmlns="http://www.w3.org/2000/svg">
<path d="M9.79028 4.31751C7.47964 4.5615 3.24399 5.79467 3.68993 11.5919C4.07717 16.626 9.87257 28.2974 14.0537 36.1504C15.8622 39.5471 20.6366 39.4581 22.3375 36.0063C26.2063 28.1552 31.5898 16.5953 32.3598 11.5919C33.2503 5.80621 29.1519 4.56642 26.8703 4.31898" stroke="black" stroke-width="2.44"/>
<rect x="9.79031" y="2.44168" width="4.88" height="3.66" rx="1.83" stroke="black" stroke-width="2.44"/>
<rect x="21.9856" y="2.44168" width="4.88" height="3.66" rx="1.83" stroke="black" stroke-width="2.44"/>
<circle cx="43.343" cy="31.1115" r="1.83" stroke="#90C2E7" stroke-width="2.44"/>
<circle cx="43.3389" cy="31.1114" r="5.49" stroke="black" stroke-width="2.44"/>
<path d="M18.332 39.6509C18.332 46.9709 20.484 58.5609 31.142 58.5609C43.952 58.5609 40.292 42.7009 33.582 42.7009C28.092 42.7009 25.042 50.0209 30.532 53.0709C36.022 56.1209 47.612 46.9709 44.562 37.2109" stroke="black" stroke-width="2.44" stroke-linecap="round" stroke-linejoin="round"/>
<path d="M48.7982 22.3285L50.2188 18.3018" stroke="#90C2E7" stroke-width="2.44" stroke-linecap="round" stroke-linejoin="round"/>
<path d="M51.8335 24.6947L55.3524 22.0549" stroke="#90C2E7" stroke-width="2.44" stroke-linecap="round" stroke-linejoin="round"/>
<path d="M53.2282 28.0967L57.4258 27.3135" stroke="#90C2E7" stroke-width="2.44" stroke-linecap="round" stroke-linejoin="round"/>
</svg>
