<svg width="61" height="62" viewBox="0 0 61 62" fill="none" xmlns="http://www.w3.org/2000/svg">
<path fill-rule="evenodd" clip-rule="evenodd" d="M40.3836 0.770358C40.6235 0.153553 41.329 -0.156242 41.9594 0.0784123L56.4979 5.48973C58.8049 6.34844 60.3567 8.48156 60.4304 10.8955L60.6995 19.7067C60.7196 20.3663 60.1894 20.9171 59.5151 20.9368C58.8409 20.9565 58.278 20.4377 58.2579 19.7781L57.9889 10.9668C57.9447 9.51848 57.0136 8.2386 55.6293 7.72338L41.0909 2.31206C40.4604 2.07741 40.1438 1.38716 40.3836 0.770358ZM1.22133 29.0939C1.89585 29.0939 2.44266 29.6289 2.44266 30.2888C2.44266 34.4742 3.27268 38.6198 4.88673 42.4959L5.0636 42.9207C7.48193 48.7282 12.5456 53.3624 17.5081 57.8969C17.9538 58.3042 18.3137 58.6482 18.5633 58.8916C18.6881 59.0133 18.7856 59.11 18.8525 59.177C18.886 59.2106 18.9119 59.2367 18.9298 59.2548L18.9506 59.276L18.9564 59.2819L18.9582 59.2837L18.9591 59.2846C19.4248 59.762 19.4068 60.5185 18.9189 60.9741C18.431 61.4297 17.6581 61.4121 17.1924 60.9349M17.1924 60.9349L17.1884 60.9308L17.1724 60.9147L17.1055 60.8473C17.0456 60.7873 16.9558 60.6982 16.8391 60.5844C16.6055 60.3566 16.2647 60.0308 15.8408 59.6434L15.6677 59.4853C10.8405 55.0749 5.42799 50.1298 2.80148 43.8223L2.6246 43.3976C0.891337 39.2352 0 34.7834 0 30.2888C0 29.6289 0.546807 29.0939 1.22133 29.0939" fill="#A1A5FF"/>
<path fill-rule="evenodd" clip-rule="evenodd" d="M31.2269 3.93267C30.3594 3.62055 29.4028 3.6244 28.5381 3.94351L8.95161 11.1715C7.48928 11.7111 6.52436 13.0591 6.52436 14.5624V27.4663C6.52436 29.0782 6.6858 30.6863 7.00645 32.2685L7.4977 34.6926C9.51659 44.6546 17.0682 52.7513 27.1641 55.7784L27.5005 55.8792C29.0599 56.3468 30.7279 56.3665 32.2989 55.9358L32.7356 55.8162C43.8217 52.7771 52.1286 43.9349 54.1323 33.0408C54.366 31.77 54.4633 30.4795 54.4226 29.1897L53.9593 14.5201C53.9127 13.0465 52.9427 11.746 51.504 11.2284L31.2269 3.93267ZM27.6319 1.6829C29.0731 1.15106 30.6675 1.14463 32.1133 1.66483L52.3904 8.96056C54.7882 9.8233 56.4049 11.9908 56.4825 14.4467L56.9458 29.1163C56.9917 30.5717 56.882 32.0278 56.6183 33.4617C54.4467 45.2685 45.4439 54.8513 33.4291 58.145L32.9924 58.2647C30.9479 58.8252 28.7771 58.7996 26.7475 58.1911L26.4111 58.0902C15.4297 54.7976 7.21573 45.9907 5.01975 35.1549L4.5285 32.7308C4.17698 30.9963 4 29.2333 4 27.4663V14.5624C4 12.0569 5.6082 9.81024 8.04542 8.91084L27.6319 1.6829ZM42.75 31.25C42.75 31.9404 42.1904 32.5 41.5 32.5H31.5V42.5C31.5 43.1904 30.9404 43.75 30.25 43.75C29.5596 43.75 29 43.1904 29 42.5V32.5H19C18.3096 32.5 17.75 31.9404 17.75 31.25C17.75 30.5596 18.3096 30 19 30H29V20C29 19.3096 29.5596 18.75 30.25 18.75C30.9404 18.75 31.5 19.3096 31.5 20V30H41.5C42.1904 30 42.75 30.5596 42.75 31.25Z" fill="black"/>
</svg>
