<svg width="31" height="32" viewBox="0 0 31 32" fill="none" xmlns="http://www.w3.org/2000/svg">
<path fill-rule="evenodd" clip-rule="evenodd" d="M20.5228 0.391493C20.6447 0.078035 21.0033 -0.0794016 21.3236 0.0398488L28.712 2.78986C29.8845 3.22625 30.6731 4.3103 30.7106 5.53704L30.8473 10.0149C30.8575 10.3501 30.588 10.63 30.2454 10.64C29.9028 10.65 29.6167 10.3864 29.6065 10.0511L29.4698 5.5733C29.4473 4.83726 28.9741 4.18683 28.2706 3.925L20.8823 1.17498C20.5619 1.05573 20.4009 0.704952 20.5228 0.391493ZM0.620675 14.7854C0.963464 14.7854 1.24135 15.0573 1.24135 15.3927C1.24135 17.5197 1.66317 19.6265 2.48342 21.5963L2.57331 21.8121C3.80229 24.7635 6.37563 27.1186 8.89754 29.423C9.12408 29.63 9.30695 29.8048 9.4338 29.9285C9.49726 29.9904 9.54677 30.0395 9.58079 30.0736C9.59781 30.0906 9.61096 30.1039 9.62005 30.1131L9.63063 30.1238L9.63359 30.1269L9.63448 30.1278L9.63494 30.1282C9.87161 30.3709 9.8625 30.7553 9.61453 30.9868C9.3666 31.2184 8.97379 31.2094 8.7371 30.9669M8.7371 30.9669L8.73506 30.9649L8.72698 30.9566L8.69296 30.9224C8.66253 30.8919 8.61689 30.8466 8.55756 30.7888C8.43886 30.673 8.26569 30.5075 8.05024 30.3106L7.96227 30.2302C5.50911 27.9889 2.75849 25.4758 1.4237 22.2704L1.33381 22.0545C0.452974 19.9392 0 17.6768 0 15.3927C0 15.0573 0.277886 14.7854 0.620675 14.7854" fill="#A1A5FF"/>
<path fill-rule="evenodd" clip-rule="evenodd" d="M15.8679 1.99882C15.427 1.84021 14.9409 1.84217 14.5014 2.00433L4.54764 5.67755C3.80449 5.9518 3.31412 6.63685 3.31412 7.4008V13.9585C3.31412 14.7777 3.39616 15.5949 3.55912 16.399L3.80877 17.6309C4.83476 22.6936 8.67247 26.8083 13.8031 28.3466L13.9741 28.3979C14.7666 28.6355 15.6143 28.6455 16.4127 28.4267L16.6346 28.3658C22.2685 26.8214 26.49 22.3278 27.5083 16.7915C27.6271 16.1457 27.6765 15.4898 27.6558 14.8343L27.4204 7.37933C27.3967 6.63046 26.9038 5.96955 26.1726 5.70649L15.8679 1.99882ZM14.0409 0.855499C14.7733 0.585221 15.5836 0.581954 16.3183 0.846318L26.6231 4.55398C27.8416 4.99242 28.6632 6.09394 28.7027 7.34204L28.9381 14.7971C28.9615 15.5367 28.9057 16.2767 28.7717 17.0054C27.6681 23.0055 23.0929 27.8755 16.987 29.5494L16.7651 29.6102C15.7261 29.895 14.6229 29.882 13.5915 29.5728L13.4205 29.5215C7.83979 27.8482 3.66547 23.3726 2.54948 17.8658L2.29983 16.634C2.12119 15.7525 2.03125 14.8565 2.03125 13.9585V7.4008C2.03125 6.12755 2.84853 4.98579 4.08712 4.52872L14.0409 0.855499ZM21.7239 15.8814C21.7239 16.2322 21.4395 16.5166 21.0886 16.5166H16.0067V21.5986C16.0067 21.9495 15.7222 22.2339 15.3714 22.2339C15.0206 22.2339 14.7362 21.9495 14.7362 21.5986V16.5166H9.6542C9.30336 16.5166 9.01896 16.2322 9.01896 15.8814C9.01896 15.5306 9.30336 15.2462 9.6542 15.2462H14.7362V10.1642C14.7362 9.81335 15.0206 9.52894 15.3714 9.52894C15.7222 9.52894 16.0067 9.81335 16.0067 10.1642V15.2462H21.0886C21.4395 15.2462 21.7239 15.5306 21.7239 15.8814Z" fill="black"/>
</svg>
