<?xml version="1.0" encoding="UTF-8"?><svg id="a" xmlns="http://www.w3.org/2000/svg" viewBox="0 0 80 80"><defs><style>.b,.c{stroke-width:0px;}.c{fill:#a1a5ff;}</style></defs><path class="c" d="M24.42,66.09c-5.74-5.58-10.08-13.67-12.2-22.76-.16-.67-.83-1.08-1.5-.93-.67.16-1.09.83-.93,1.5,2.23,9.56,6.81,18.08,12.89,23.99l2.19,2.12c.24.24.56.35.87.35s.65-.13.9-.38c.48-.5.47-1.29-.03-1.77l-2.19-2.12Z"/><path class="c" d="M63.99,17.2l-8.32-5.6c-.57-.38-1.35-.23-1.74.34s-.23,1.35.34,1.74l8.32,5.6c3.24,2.18,5.25,6.39,5.25,10.98,0,4.89-.61,9.73-1.83,14.38-.32,1.24-.69,2.48-1.1,3.69-.22.65.13,1.36.78,1.58.13.04.27.07.4.07.52,0,1.01-.33,1.18-.85.43-1.26.81-2.56,1.15-3.86,1.26-4.86,1.91-9.91,1.91-15.01,0-5.41-2.43-10.41-6.35-13.05Z"/><path class="b" d="M61.35,21.11l-9.93-6.69c-7.42-5-17.01-4.98-24.42.04l-9.82,6.65c-2.62,1.78-4.25,5.28-4.25,9.14,0,13.52,4.87,26.33,13.02,34.26l2.19,2.12c3.11,3.02,7.1,4.53,11.09,4.53,3.97,0,7.95-1.5,11.05-4.49l2.23-2.16c8.21-7.93,13.11-20.73,13.11-34.26,0-3.86-1.64-7.36-4.27-9.14ZM50.78,62.71l-2.23,2.16c-5.24,5.06-13.44,5.05-18.66-.03l-2.19-2.12c-7.68-7.46-12.27-19.6-12.27-32.46,0-3,1.24-5.77,3.15-7.07l9.82-6.65c3.29-2.23,7.06-3.34,10.83-3.34s7.51,1.1,10.79,3.31l9.93,6.69c1.92,1.3,3.17,4.07,3.17,7.06,0,12.86-4.61,25-12.34,32.46Z"/><path class="b" d="M50.39,39.33h-9.95v-9.95c0-.69-.56-1.25-1.25-1.25s-1.25.56-1.25,1.25v9.95h-9.95c-.69,0-1.25.56-1.25,1.25s.56,1.25,1.25,1.25h9.95v9.95c0,.69.56,1.25,1.25,1.25s1.25-.56,1.25-1.25v-9.95h9.95c.69,0,1.25-.56,1.25-1.25s-.56-1.25-1.25-1.25Z"/></svg>