<svg width="61" height="63" viewBox="0 0 61 63" fill="none" xmlns="http://www.w3.org/2000/svg">
<path d="M20.5392 8.19802C20.5392 10.1304 19.7147 12.6225 18.2935 15.091C17.0797 17.1993 15.4958 19.1761 13.8105 20.649C12.1253 19.1761 10.5413 17.1993 9.32752 15.091C7.90626 12.6225 7.08179 10.1304 7.08179 8.19802C7.08179 4.40635 10.1111 1.36304 13.8105 1.36304C17.51 1.36304 20.5392 4.40635 20.5392 8.19802Z" stroke="black" stroke-width="2.72609"/>
<circle cx="13.8114" cy="8.09268" r="1.74917" stroke="#73D1B0" stroke-width="2.72609"/>
<path d="M13.8125 25.5209C13.8125 46.0617 38.7923 9.91319 51.1584 23.6536C56.7604 29.8781 51.7808 37.3474 37.4647 37.3474C23.1485 37.3474 13.8119 37.3474 13.8125 46.0616C13.8132 56.6431 31.2409 54.1534 44.3122 46.0616C47.3286 44.1943 50.5366 43.5719 50.5366 48.5514" stroke="black" stroke-width="2.72609" stroke-linecap="round"/>
<path d="M50.5264 52.2861L45.5469 61.0003L50.5264 59.133L55.506 61.0003L50.5264 52.2861Z" stroke="#73D1B0" stroke-width="2.72609" stroke-linecap="round" stroke-linejoin="round"/>
<path d="M46.1758 31.7431C47.4207 31.1206 48.79 30.1247 49.288 28.6309" stroke="#73D1B0" stroke-width="2.72609" stroke-linecap="round" stroke-linejoin="round"/>
<path d="M18.1663 46.6836C18.7888 47.9285 19.4112 49.1734 22.5234 49.1734" stroke="#73D1B0" stroke-width="2.72609" stroke-linecap="round" stroke-linejoin="round"/>
</svg>
