<svg width="31" height="32" viewBox="0 0 31 32" fill="none" xmlns="http://www.w3.org/2000/svg">
<path d="M20.562 4.16621C20.562 5.14823 20.981 6.41471 21.7033 7.66921C22.3202 8.74061 23.1251 9.74524 23.9815 10.4938C24.838 9.74524 25.6429 8.74061 26.2598 7.66921C26.9821 6.41471 27.4011 5.14823 27.4011 4.16621C27.4011 2.23929 25.8616 0.692694 23.9815 0.692694C22.1015 0.692694 20.562 2.23929 20.562 4.16621Z" stroke="black" stroke-width="1.38539"/>
<circle cx="1.58162" cy="1.58162" r="0.888922" transform="matrix(-1 0 0 1 25.5625 2.53125)" stroke="#73D1B0" stroke-width="1.38539"/>
<path d="M23.9805 12.97C23.9805 23.4088 11.2858 5.03822 5.0014 12.021C2.15449 15.1843 4.68508 18.9802 11.9605 18.9802C19.2359 18.9802 23.9808 18.9802 23.9805 23.4087C23.9801 28.7862 15.1234 27.5209 8.48063 23.4087C6.94768 22.4598 5.3174 22.1434 5.3174 24.674" stroke="black" stroke-width="1.38539" stroke-linecap="round"/>
<path d="M5.32098 26.5713L7.85156 30.9998L5.32098 30.0508L2.79039 30.9998L5.32098 26.5713Z" stroke="#73D1B0" stroke-width="1.38539" stroke-linecap="round" stroke-linejoin="round"/>
<path d="M7.53516 16.1314C6.90251 15.8151 6.2066 15.309 5.95354 14.5498" stroke="#73D1B0" stroke-width="1.38539" stroke-linecap="round" stroke-linejoin="round"/>
<path d="M21.769 23.7246C21.4526 24.3573 21.1363 24.9899 19.5547 24.9899" stroke="#73D1B0" stroke-width="1.38539" stroke-linecap="round" stroke-linejoin="round"/>
</svg>
