<?xml version="1.0" encoding="UTF-8"?><svg id="a" xmlns="http://www.w3.org/2000/svg" viewBox="0 0 80 80"><defs><style>.b,.c{stroke-width:0px;}.c{fill:#73d1b0;}</style></defs><path class="b" d="M14.73,28.97l.82-.72c1.77-1.54,3.45-3.63,4.74-5.88,1.56-2.7,2.41-5.37,2.41-7.52,0-4.46-3.58-8.08-7.98-8.08s-7.98,3.63-7.98,8.08c0,2.15.86,4.81,2.41,7.52,1.29,2.25,2.98,4.33,4.74,5.88l.82.72ZM11.33,21.13c-1.32-2.29-2.08-4.58-2.08-6.27,0-3.08,2.46-5.58,5.48-5.58s5.48,2.51,5.48,5.58c0,1.69-.76,3.97-2.08,6.27-.95,1.66-2.14,3.21-3.4,4.47-1.26-1.26-2.45-2.81-3.4-4.47Z"/><path class="b" d="M64.81,52.8c-2.92-1.8-8.22-1.25-13.49,1.4-14.77,7.11-27.67,9.6-32.85,6.34-1.67-1.05-2.49-2.69-2.49-5,0-3.86,2.44-6,8.15-7.18,5.72-1.17,14.24-1.17,24.11-1.17,12.34,0,16.25-3.55,17.36-6.52,1.22-3.26-.39-7.33-4.2-10.63-9.64-8.33-22.34-1.2-31.61,4.01-5.21,2.93-10.12,5.69-12.2,4.47-1.05-.62-1.61-2.56-1.61-5.62,0-.69-.56-1.25-1.25-1.25s-1.25.56-1.25,1.25c0,4.17.91,6.64,2.85,7.77,3.31,1.94,8.33-.88,14.69-4.45,9.11-5.11,20.44-11.48,28.75-4.3,2.95,2.55,4.32,5.64,3.49,7.86-.68,1.83-3.54,4.89-15.02,4.89-10.42,0-18.65,0-24.62,1.23-4.36.9-10.15,2.87-10.15,9.63,0,3.16,1.27,5.62,3.66,7.12,1.98,1.24,4.61,1.78,7.64,1.78,7.96,0,18.69-3.68,27.64-8,4.4-2.2,8.95-2.82,11.08-1.51.83.51,1.23,1.32,1.23,2.46,0,.69.56,1.25,1.25,1.25s1.25-.56,1.25-1.25c0-2.02-.84-3.61-2.42-4.59Z"/><path class="c" d="M14.73,11.1c-2.02,0-3.65,1.64-3.65,3.66s1.64,3.66,3.65,3.66,3.66-1.64,3.66-3.66-1.64-3.66-3.66-3.66ZM14.73,15.91c-.64,0-1.15-.52-1.15-1.16s.52-1.16,1.15-1.16,1.16.52,1.16,1.16-.52,1.16-1.16,1.16Z"/><path class="c" d="M73.08,71.38l-6.02-10.53c-.45-.78-1.72-.78-2.17,0l-6.02,10.53c-.26.46-.21,1.03.13,1.43.34.4.9.54,1.39.36l5.58-2.09,5.58,2.09c.14.05.29.08.44.08.36,0,.71-.16.95-.44.34-.4.39-.97.13-1.43ZM66.42,68.57c-.14-.05-.29-.08-.44-.08s-.3.03-.44.08l-2.78,1.04,3.21-5.62,3.21,5.62-2.78-1.04Z"/><path class="c" d="M61.99,38.15c.06-.69-.45-1.29-1.14-1.35-.68-.06-1.29.45-1.35,1.14-.09,1-1.46,1.93-3.41,2.31-.68.13-1.12.79-.99,1.47.12.6.64,1.01,1.23,1.01.08,0,.16,0,.24-.02,3.15-.62,5.23-2.36,5.42-4.55Z"/><path class="c" d="M26.98,57.72c-3.44.26-5.7-.42-6.05-1.8-.17-.67-.84-1.08-1.52-.91-.67.17-1.08.85-.91,1.52.36,1.45,1.78,3.75,7.1,3.75.49,0,1-.02,1.56-.06.69-.05,1.21-.65,1.15-1.34-.05-.69-.64-1.19-1.34-1.16Z"/></svg>